<svg width="1080" height="720" viewBox="0 0 1080 720" fill="none" xmlns="http://www.w3.org/2000/svg">
<g clip-path="url(#clip0_3861_1714)">
<path d="M1080 0H0V720H1080V0Z" fill="#E4DFF3"/>
<path d="M621.444 420.17C657.942 420.17 687.53 390.582 687.53 354.084C687.53 317.585 657.942 287.997 621.444 287.997C584.945 287.997 555.357 317.585 555.357 354.084C555.357 390.582 584.945 420.17 621.444 420.17Z" fill="#FDF1DE"/>
<path d="M658.624 328.622H583.439V371.223H627.837C636.14 379.048 646.09 387.51 646.09 387.51L644.462 371.223H658.624V328.622Z" fill="white" stroke="#323232" stroke-width="2" stroke-linecap="round" stroke-linejoin="round"/>
<path d="M637.404 344.938C637.388 342.882 636.639 340.9 635.291 339.348C633.943 337.797 632.085 336.778 630.052 336.475C628.019 336.172 625.945 336.606 624.204 337.698C622.462 338.789 621.168 340.467 620.554 342.429C619.941 340.467 618.647 338.789 616.905 337.698C615.164 336.606 613.089 336.172 611.056 336.475C609.023 336.778 607.165 337.797 605.818 339.348C604.47 340.9 603.72 342.882 603.705 344.938C603.705 347.746 605.661 350.414 606.953 351.809C610.136 355.244 620.685 364.548 620.685 364.548C620.685 364.548 631.432 354.972 634.923 351.312C636.442 349.526 637.316 347.281 637.404 344.938Z" fill="#FF3B00"/>
<path d="M547.588 354.083C547.588 313.271 580.725 280.134 621.537 280.134" stroke="#323232" stroke-width="2.7228" stroke-miterlimit="10" stroke-linecap="round" stroke-linejoin="round"/>
<path d="M689.496 352.118C689.496 390.029 658.699 420.826 620.788 420.826" stroke="#323232" stroke-width="2.53" stroke-miterlimit="10" stroke-linecap="round" stroke-linejoin="round"/>
<path d="M676.453 220.173C712.951 220.173 742.539 190.585 742.539 154.087C742.539 117.588 712.951 88 676.453 88C639.954 88 610.366 117.588 610.366 154.087C610.366 190.585 639.954 220.173 676.453 220.173Z" fill="#FDF1DE"/>
<path d="M677.108 88.2803C713.615 88.2803 743.194 117.86 743.194 154.367" stroke="#323232" stroke-width="2.5" stroke-miterlimit="10" stroke-linecap="round" stroke-linejoin="round"/>
<path d="M674.487 227.006C634.704 227.006 602.503 194.805 602.503 155.022" stroke="#323232" stroke-width="2.7228" stroke-miterlimit="10" stroke-linecap="round" stroke-linejoin="round"/>
<mask id="mask0_3861_1714" style="mask-type:alpha" maskUnits="userSpaceOnUse" x="613" y="108" width="136" height="90">
<path d="M748.811 108.032H613.923V197.989H748.811V108.032Z" fill="#FFECE6"/>
</mask>
<g mask="url(#mask0_3861_1714)">
<rect x="661.559" y="136.716" width="20.6608" height="20.6608" transform="rotate(30 661.559 136.716)" fill="#FFCCDD"/>
<path d="M683.74 133.679L699.456 134.494L692.47 175.354L675.819 175.476L683.74 133.679Z" fill="url(#paint0_linear_3861_1714)"/>
<circle cx="672.896" cy="129.748" r="10.7648" fill="#9C89D4"/>
<path d="M636.797 135.983L649.07 137.878L651.045 148.65M655.794 174.55L654.211 165.917M655.794 174.55H669.928M655.794 174.55L652.667 179.453C651.11 181.895 652.864 185.093 655.759 185.093H696.515M651.045 148.65L652.628 157.284M651.045 148.65H668.094M652.628 157.284H700.309M652.628 157.284L654.211 165.917M700.309 157.284L703.161 148.65H684.291M700.309 157.284L697.457 165.917M654.211 165.917H697.457M697.457 165.917L694.605 174.55H683.221M668.094 148.65L669.928 174.55M668.094 148.65H684.291M669.928 174.55H683.221M684.291 148.65L683.221 174.55" stroke="#202641" stroke-width="2.5"/>
<circle cx="657.742" cy="191.397" r="3.62899" fill="#323232"/>
<circle cx="689.524" cy="191.397" r="3.62899" fill="#323232"/>
</g>
<path d="M758.766 171.833C721.98 180.049 694.524 218.293 698.483 255.778C702.526 293.951 733.586 323.743 744.706 360.481C750.42 379.342 750.621 399.84 745.275 418.819C736.87 448.682 712.223 475.344 681.424 479.007C650.625 482.67 617.455 457.087 619.197 426.11C619.577 419.341 621.936 412.05 627.757 408.577C635.178 404.143 645.456 408.126 650.305 415.287C655.153 422.447 655.699 431.682 654.845 440.289C651.822 471.005 632.949 498.828 607.959 516.955C536.829 568.536 423.709 565.358 370.314 490.447C326.487 428.955 325.894 333.156 393.775 288.415C424.954 267.87 475.764 276.074 488.354 311.224C490.251 316.523 491.223 322.249 490.429 327.821C488.236 343.114 472.552 353.949 457.105 354.53C441.658 355.111 426.957 347.476 415.031 337.649C387.457 314.934 371.239 279.061 372.377 243.366C373.515 207.659 392.009 172.912 420.971 152" stroke="#FF3C00" stroke-width="4.5037" stroke-miterlimit="10" stroke-linecap="round" stroke-linejoin="round"/>
<path d="M784.515 174.441C781.038 174.441 778.22 171.622 778.22 168.146C778.22 164.669 781.038 161.851 784.515 161.851C787.991 161.851 790.81 164.669 790.81 168.146C790.81 171.622 787.991 174.441 784.515 174.441Z" fill="#FF3C00"/>
<path d="M476.227 306.854C512.726 306.854 542.314 277.266 542.314 240.767C542.314 204.269 512.726 174.681 476.227 174.681C439.729 174.681 410.141 204.269 410.141 240.767C410.141 277.266 439.729 306.854 476.227 306.854Z" fill="#FDF1DE"/>
<path d="M471.921 175.71C490.081 174.68 508.522 181.139 522.282 194.993C548.117 220.828 548.117 262.671 522.282 288.413C496.446 314.155 454.604 314.248 428.862 288.413" stroke="#323232" stroke-width="2.5" stroke-miterlimit="10" stroke-linecap="round" stroke-linejoin="round"/>
<path d="M404.631 258.963C394.334 220.535 417.104 181.097 455.531 170.801" stroke="#323232" stroke-width="2.7228" stroke-miterlimit="10" stroke-linecap="round" stroke-linejoin="round"/>
<path d="M534.272 194.862C551.556 216.687 554.49 245.361 544.449 269.372" stroke="#323232" stroke-width="2.7228" stroke-miterlimit="10" stroke-linecap="round" stroke-linejoin="round"/>
<path d="M472.576 271.563C489.378 271.563 502.999 257.943 502.999 241.141C502.999 224.339 489.378 210.719 472.576 210.719C455.775 210.719 442.154 224.339 442.154 241.141C442.154 257.943 455.775 271.563 472.576 271.563Z" fill="white" stroke="#323232" stroke-width="2.5" stroke-linecap="round" stroke-linejoin="round"/>
<path fill-rule="evenodd" clip-rule="evenodd" d="M486.726 229.316C487.368 228.675 487.368 227.634 486.726 226.993C486.085 226.351 485.044 226.351 484.403 226.993L472.108 239.287L459.814 226.993C459.172 226.351 458.132 226.351 457.491 226.993C456.849 227.634 456.849 228.675 457.491 229.316L469.785 241.611L457.491 253.905C456.849 254.547 456.849 255.587 457.491 256.228C458.132 256.87 459.172 256.87 459.814 256.228L472.108 243.934L484.403 256.228C485.044 256.87 486.085 256.87 486.726 256.228C487.368 255.587 487.368 254.547 486.726 253.905L474.432 241.611L486.726 229.316Z" fill="#FF3C00"/>
<path d="M542.885 586.473C579.384 586.473 608.972 556.885 608.972 520.386C608.972 483.888 579.384 454.3 542.885 454.3C506.387 454.3 476.799 483.888 476.799 520.386C476.799 556.885 506.387 586.473 542.885 586.473Z" fill="#FDF1DE"/>
<path d="M526.972 495.487H512.276V541.074H526.972V495.487Z" fill="#9C89D4"/>
<path d="M547.379 515.052H532.682V540.981H547.379V515.052Z" fill="#C3F0F7"/>
<path d="M586.881 527.596H572.184V541.075H586.881V527.596Z" fill="#FFCCDD"/>
<path d="M567.317 502.603H552.621V541.075H567.317V502.603Z" fill="url(#paint1_linear_3861_1714)"/>
<path d="M506.472 489.31V541.542H591.748" stroke="#323232" stroke-width="2.1094" stroke-miterlimit="10" stroke-linecap="round" stroke-linejoin="round"/>
<path d="M496.644 509.342C501.792 506.065 508.719 508.031 513.586 511.588C518.454 515.145 522.385 520.013 527.534 523.289C535.022 528.063 544.945 528.905 553.089 525.255C559.173 522.54 564.321 517.673 570.874 516.175C580.609 514.022 590.531 519.545 597.271 527.314" stroke="#323232" stroke-width="2.1094" stroke-miterlimit="10" stroke-linecap="round" stroke-linejoin="round"/>
<path d="M541.856 454.956C560.016 453.926 578.456 460.385 592.216 474.239C618.052 500.074 618.052 541.917 592.216 567.659C566.381 593.401 524.538 593.494 498.797 567.659" stroke="#323232" stroke-width="2.5" stroke-miterlimit="10" stroke-linecap="round" stroke-linejoin="round"/>
<path d="M585.57 460.197C619.082 481.633 628.91 526.097 607.474 559.608" stroke="#323232" stroke-width="2.7228" stroke-miterlimit="10" stroke-linecap="round" stroke-linejoin="round"/>
<path d="M826.295 250.477L869.502 234.221L888.432 274.968L935.917 207.911L911.533 139.464L923.511 125.988C923.511 125.988 983.724 177.858 978.055 211.547C972.387 245.236 933.992 293.47 933.992 293.47L923.511 345.768C923.511 345.768 884.689 352.506 865.224 345.02C841.268 335.822 826.295 250.477 826.295 250.477Z" fill="white"/>
<path d="M886.079 164.49C892.496 168.233 898.057 174.009 899.983 181.174C902.015 188.768 904.474 194.436 903.726 202.243C902.549 214.97 910.464 231.44 913.244 237.964C905.972 250.905 897.63 263.311 888.432 274.968C882.336 261.386 875.812 248.017 868.753 234.969C876.24 228.659 880.09 218.392 878.7 208.767C870.572 211.655 859.984 212.296 854.743 205.345C852.069 201.815 851.642 197.537 850.251 193.366C848.861 189.195 841.802 190.907 842.337 188.875C842.765 187.163 848.861 179.356 850.251 174.864C851.642 170.372 852.176 165.56 854.636 161.603C861.053 151.228 878.272 159.998 886.079 164.49ZM871.427 344.057C871.748 343.736 872.069 345.875 873.566 349.833C870.251 349.298 866.294 348.442 862.443 347.801C852.711 352.827 839.877 364.057 838.915 387.479C837.738 416.783 831.107 426.301 818.701 450.258C807.686 471.54 793.034 477.209 785.761 514.962C781.269 538.49 785.761 553.142 773.462 576.671C761.163 600.2 770.147 615.921 758.917 621.483C747.687 627.044 743.179 637.798 743.179 637.798L810.466 660.257L894.314 417.745C895.812 414.002 901.266 414.323 902.335 418.173L961.906 660.626H1023.62C1023.62 660.626 1026.93 656.134 1018.05 650.573C1009.07 645.012 1010.25 631.536 1010.25 610.253C1010.25 588.97 1004.79 586.617 1002.44 566.511C999.124 538.49 1000.51 512.288 993.884 485.444C983.403 443.627 962.441 429.723 957.949 406.195C953.457 382.666 952.708 341.277 911.64 347.587C892.282 350.688 871.427 344.057 871.427 344.057ZM821.803 340.528C818.06 339.031 813.247 338.71 812.819 337.213C806.509 311.01 788.114 319.673 787.365 324.913C784.157 347.373 808.541 349.619 821.803 340.528Z" fill="url(#paint2_linear_3861_1714)"/>
<path d="M906.079 163.419C905.651 162.884 904.581 161.066 903.619 159.141C904.474 160.425 905.33 161.922 906.079 163.419ZM909.501 171.868C908.645 169.194 907.469 166.2 906.079 163.419C905.651 162.884 904.581 161.066 903.619 159.141C902.549 157.109 901.48 155.184 901.48 155.184C896.881 146.949 880.09 134.222 876.133 133.473C872.497 132.832 868.219 136.896 868.86 140.96C869.074 142.243 869.609 143.741 870.358 145.131C866.614 145.452 862.764 146.735 858.7 149.516C849.182 156.04 850.679 167.911 850.679 167.911C850.679 167.911 859.984 162.67 862.871 159.89C865.973 165.879 877.523 177.322 877.523 177.322C877.523 177.322 882.978 170.906 888.004 173.365C893.031 175.825 893.138 178.82 892.496 182.349C891.961 185.344 888.646 189.515 888.646 189.515C888.646 189.515 892.068 203.097 902.442 204.594C905.972 197.964 913.993 185.771 909.501 171.868Z" fill="#9C89D4"/>
<path d="M921.051 160.854C925.864 175.719 930.463 189.302 935.276 204.168C936.987 209.408 939.34 215.397 944.58 217.109C949.714 218.82 955.81 214.756 956.131 209.408C956.558 204.061 951.104 199.141 945.757 200.104C941.479 200.852 938.484 204.489 935.81 207.804C918.912 229.408 902.977 251.76 887.897 274.647L869.609 235.076" stroke="#323232" stroke-width="5" stroke-linecap="round" stroke-linejoin="round"/>
<path d="M931.853 132.726C948.217 153.046 973.564 175.398 977.521 200.21C980.194 217.108 971.745 233.685 962.655 248.337C955.168 260.423 947.254 272.187 939.233 283.951C936.024 288.657 932.495 293.684 927.041 295.502C921.586 297.32 914.314 293.684 914.635 288.015C915.062 280.85 926.827 280.208 930.998 286.09C935.062 291.972 933.672 299.887 932.067 306.945C929.18 319.993 926.185 333.041 923.298 346.089C907.255 348.655 893.673 349.939 873.459 344.484" stroke="#323232" stroke-width="5" stroke-linecap="round" stroke-linejoin="round"/>
<path d="M851.749 167.378C852.283 171.335 851.749 175.827 851.749 175.827L843.3 188.768C843.3 188.768 849.396 190.265 849.503 191.014C851.749 210.157 870.144 213.152 878.7 208.232C879.448 216.574 879.662 223.312 874.208 229.622C871.106 233.258 865.652 235.29 861.267 237.109C853.995 240.21 844.262 243.739 836.99 246.841" stroke="#323232" stroke-width="2.5" stroke-linecap="round" stroke-linejoin="round"/>
<path d="M856.134 185.024C857.374 185.024 858.379 184.019 858.379 182.778C858.379 181.538 857.374 180.532 856.134 180.532C854.893 180.532 853.888 181.538 853.888 182.778C853.888 184.019 854.893 185.024 856.134 185.024Z" fill="#323232"/>
<path d="M862.123 160.854C867.042 167.27 872.069 172.618 877.844 178.179C879.234 175.185 882.764 173.153 886.079 173.58C889.395 174.008 892.282 176.896 892.603 180.211C892.924 183.527 890.464 186.949 887.256 187.698C888.325 195.933 895.384 205.879 902.549 205.451" stroke="#323232" stroke-width="2.5" stroke-linecap="round" stroke-linejoin="round"/>
<path d="M871.427 145.453C865.224 147.057 862.337 154.009 861.695 160.426" stroke="#323232" stroke-width="2.5" stroke-linecap="round" stroke-linejoin="round"/>
<path d="M871.106 145.453C875.598 146.95 886.079 152.94 889.074 155.185" stroke="#323232" stroke-width="2.5" stroke-linecap="round" stroke-linejoin="round"/>
<path d="M874.85 140.212C881.908 142.779 886.935 147.912 889.074 155.185" stroke="#323232" stroke-width="2.5" stroke-linecap="round" stroke-linejoin="round"/>
<path d="M921.159 346.838C918.271 356.891 932.816 369.297 944.046 360.313" stroke="#323232" stroke-width="2.5" stroke-linecap="round" stroke-linejoin="round"/>
<path d="M852.497 172.938C858.059 172.296 859.984 174.007 863.727 174.542" stroke="#323232" stroke-width="2.5" stroke-linecap="round" stroke-linejoin="round"/>
<path d="M851.749 196.254C854.102 196.254 856.347 195.719 858.486 194.649" stroke="#323232" stroke-width="2.5" stroke-linecap="round" stroke-linejoin="round"/>
<path d="M825.842 339.876C860.606 339.876 888.788 311.694 888.788 276.929C888.788 242.165 860.606 213.982 825.842 213.982C791.077 213.982 762.895 242.165 762.895 276.929C762.895 311.694 791.077 339.876 825.842 339.876Z" fill="#FDF1DE"/>
<path d="M755.495 276.929C755.495 238.056 787.057 206.493 825.931 206.493" stroke="#323232" stroke-width="2.7228" stroke-miterlimit="10" stroke-linecap="round" stroke-linejoin="round"/>
<path d="M890.661 275.058C890.661 311.167 861.327 340.501 825.218 340.501" stroke="#323232" stroke-width="2.53" stroke-miterlimit="10" stroke-linecap="round" stroke-linejoin="round"/>
<path d="M904.795 161.067C904.795 161.067 916.025 167.804 924.153 160.425C927.682 157.216 928.966 151.227 925.65 147.912C929.073 149.516 933.672 147.698 935.169 144.169C936.666 140.639 934.527 136.147 930.998 134.864C935.169 133.474 937.843 128.768 937.094 124.49C936.345 120.212 932.174 116.79 927.789 116.897C929.073 113.474 927.682 109.303 924.795 107.271C921.907 105.239 917.522 105.346 914.742 107.699C914.314 104.277 911.64 101.389 908.218 100.747C904.795 100.106 901.266 101.817 899.555 104.811C897.416 102.459 893.673 101.71 890.785 103.1C887.897 104.491 886.293 108.02 886.935 111.121C883.94 109.089 879.342 110.052 877.31 113.047C875.277 116.041 876.133 120.64 879.128 122.672C876.133 121.068 871.748 122.886 870.893 126.201C870.037 129.517 872.818 133.26 876.24 133.367L904.795 161.067Z" fill="#9C89D4"/>
<path d="M821.235 340.087C817.492 338.589 812.679 338.268 812.252 336.771C805.942 310.569 787.546 319.231 786.798 324.472C783.589 346.931 807.974 349.177 821.235 340.087Z" fill="url(#paint3_linear_3861_1714)"/>
<path d="M791.216 321.49C792.071 327.052 794.317 332.399 797.846 336.784" stroke="#323232" stroke-width="2.5" stroke-linecap="round" stroke-linejoin="round"/>
<path d="M798.274 319.993C799.13 325.555 801.376 330.902 804.905 335.287" stroke="#323232" stroke-width="2.5" stroke-linecap="round" stroke-linejoin="round"/>
<path fill-rule="evenodd" clip-rule="evenodd" d="M825.5 245.509C808.384 245.509 794.509 259.384 794.509 276.5C794.509 293.616 808.384 307.491 825.5 307.491C842.616 307.491 856.491 293.616 856.491 276.5C856.491 259.384 842.616 245.509 825.5 245.509ZM789 276.5C789 256.342 805.342 240 825.5 240C845.658 240 862 256.342 862 276.5C862 296.658 845.658 313 825.5 313C805.342 313 789 296.658 789 276.5ZM826.572 262.622C825.507 262.41 824.403 262.519 823.4 262.935C822.397 263.35 821.54 264.054 820.937 264.956C820.333 265.859 820.011 266.92 820.011 268.006C820.011 269.666 818.666 271.011 817.007 271.011C815.347 271.011 814.002 269.666 814.002 268.006C814.002 265.732 814.676 263.509 815.94 261.618C817.203 259.727 818.999 258.253 821.1 257.383C823.202 256.512 825.514 256.285 827.744 256.728C829.975 257.172 832.024 258.267 833.632 259.875C835.24 261.483 836.335 263.532 836.779 265.763C837.222 267.993 836.995 270.305 836.124 272.407C835.254 274.508 833.78 276.304 831.889 277.567C830.847 278.264 829.703 278.781 828.506 279.106V282.163C828.506 283.822 827.16 285.168 825.501 285.168C823.841 285.168 822.496 283.822 822.496 282.163V276.5C822.496 274.841 823.841 273.496 825.501 273.496C826.586 273.496 827.648 273.174 828.551 272.57C829.453 271.967 830.157 271.11 830.572 270.107C830.988 269.104 831.097 268 830.885 266.935C830.673 265.87 830.15 264.892 829.382 264.125C828.615 263.357 827.637 262.834 826.572 262.622ZM823.141 291.372C823.839 290.905 824.66 290.656 825.5 290.656C826.622 290.671 827.694 291.123 828.487 291.916C829.281 292.709 829.733 293.781 829.747 294.903C829.747 295.743 829.498 296.564 829.032 297.262C828.565 297.961 827.902 298.505 827.126 298.827C826.35 299.148 825.496 299.232 824.672 299.068C823.848 298.904 823.091 298.5 822.497 297.906C821.903 297.312 821.499 296.555 821.335 295.731C821.171 294.908 821.255 294.054 821.577 293.278C821.898 292.502 822.442 291.838 823.141 291.372Z" fill="black" fill-opacity="0.89"/>
<path d="M279.123 182.122C278.927 175.447 261.061 129.287 240.544 138.111C229.015 143.063 238.254 165.87 234.556 172.916C231.098 179.461 227.106 185.776 230.193 191.011C233.705 197.011 235.33 199.814 231.917 205.649C228.503 211.485 233.182 218.891 246.14 220.178L279.123 182.122Z" fill="#323232"/>
<path d="M268.139 331.519C273.59 342.346 280.171 352.564 287.773 362.005C292.648 353.727 306.315 330.494 314.267 316.991C294.71 293.442 273.746 266.817 271.03 257.873L268.139 331.519Z" fill="white"/>
<path d="M111.336 370.219C151.016 413.935 243.402 449.384 274.498 449.384V265.355C271.51 278.804 264.507 293.289 254.865 293.289C242.682 293.289 231.687 272.053 229.44 251.427C228.709 252.027 227.979 252.583 227.259 253.117C180.183 284.563 137.709 319.718 111.336 370.219Z" fill="white"/>
<path fill-rule="evenodd" clip-rule="evenodd" d="M281.948 219.142C269.88 213.798 258.947 206.194 249.739 196.738C249.249 194.704 249.094 192.604 249.28 190.521C251.964 177.476 276.56 176.789 296.52 190.052C301.887 187.794 308.867 185.373 310.427 186.463C315.346 190.117 318.422 202.541 305.944 208.584L306.01 208.703C297.103 209.61 288.695 213.256 281.948 219.142ZM344.785 395.818C320.909 395.818 301.221 378.628 287.773 362.006C290.39 357.55 295.551 348.796 301.003 339.548C305.707 331.569 310.628 323.222 314.321 316.947C326.319 331.476 337.608 344.51 343.771 351.578C356.685 327.44 400.075 247.544 407.95 247.544C414.418 247.544 403.51 270.002 403.51 270.002C408.539 263 416.348 272.391 415.683 285.589C411.32 370.175 369.207 395.818 344.785 395.818ZM246.214 226.009C241.608 224.715 238.232 220.485 238.232 215.466C238.232 209.418 243.134 204.515 249.183 204.515C255.231 204.515 260.134 209.418 260.134 215.466C260.134 217.63 259.506 219.647 258.423 221.346L274.553 233.441V265.4C271.51 278.849 264.507 293.334 254.92 293.334C242.736 293.334 231.741 272.097 229.495 251.471C236.81 245.515 243.147 236.417 246.214 226.009ZM167.208 409.933C167.842 410.333 168.462 410.737 169.068 411.145C194.368 428.15 239.2 442.579 239.2 442.579C233.558 480.401 239.289 517.668 243.986 548.208C247.016 567.913 249.616 584.818 248.452 597.266C247.957 602.562 246.72 606.052 245.662 609.037C244.27 612.962 243.189 616.012 244.514 621.142C245.749 625.943 249.106 629.159 252.058 631.987C254.505 634.331 256.674 636.408 257.123 638.899C257.591 641.491 256.68 643.501 255.789 645.465C254.79 647.667 253.818 649.811 254.844 652.654C255.934 655.697 259.479 658.522 264.399 660.703H225.416L165.01 486.2C153.442 516.887 152.072 548.304 151.049 571.762C150.785 577.828 150.544 583.362 150.155 588.213C149.605 594.778 145.85 600.905 142.547 606.297C139.697 610.948 137.183 615.051 137.35 618.415C137.564 622.734 140.191 626.119 142.515 629.115C144.101 631.159 145.546 633.021 145.988 634.875C147.1 639.614 145.333 641.854 143.771 643.834C142.759 645.117 141.833 646.291 141.833 647.963C141.833 653.984 150.439 658.413 156.623 660.703H120.793C65.2684 529.744 91.305 412.933 100.648 387.791C86.3236 362.317 76.9471 332.73 83.4126 311.581C89.6953 291.021 106.263 277.354 126.889 268.334L144.701 313.621L117.269 319.598C127.411 336.044 159.872 389.504 167.208 409.933Z" fill="url(#paint4_linear_3861_1714)"/>
<path d="M126.911 268.334L144.701 313.622L186.978 304.841L229.516 251.472C201.234 251.472 159.131 254.242 126.911 268.334Z" fill="white"/>
<path d="M260.472 178.01C262.871 182.209 261.453 186.812 257.2 188.644C261.486 192.364 262.13 202.824 251.342 203.5C239.868 193.869 240.882 184.958 240.882 184.958L260.472 178.01Z" fill="#323232"/>
<path d="M249.739 196.738C253.469 216.579 275.284 269.632 304.897 255.518C317.67 249.421 315.347 233.201 311.442 221.302C302.607 222.96 297.339 218.76 296.739 217.768L308.246 213.11C307.373 211.191 306.599 209.663 306.065 208.747C297.158 209.654 288.75 213.3 282.003 219.186C269.912 213.834 258.959 206.215 249.739 196.738Z" fill="#323232"/>
<path d="M287.664 195.582C286.332 195.582 285.253 194.503 285.253 193.171C285.253 191.839 286.332 190.761 287.664 190.761C288.996 190.761 290.074 191.839 290.074 193.171C290.074 194.503 288.996 195.582 287.664 195.582Z" fill="#323232"/>
<path d="M285.689 182.23C283.681 184.163 281.92 186.335 280.443 188.699" stroke="#323232" stroke-width="4" stroke-linecap="round" stroke-linejoin="round"/>
<path d="M187 304.84C187 304.84 128.1 318.9 119.145 320.569C104.661 323.274 95.8911 318.584 97.6253 312.356C99.5668 305.397 112.896 308.996 119.145 320.569C121.24 324.474 174.271 411.983 168.229 417.644C165.643 420.076 154.529 413.139 154.529 413.139C157.725 422.531 163.429 434.529 156.71 438.859C137.23 451.522 67.2702 360.533 83.3912 311.57C100.679 259.03 186.378 252.223 229.451 251.46C232.08 273.449 243.336 293.322 254.876 293.322C266.416 293.322 273.637 273.754 274.51 265.389L343.738 351.556C357.754 364.405 359.26 377.407 350.741 380.123C342.397 382.784 336.234 368.277 343.738 351.556C347.698 342.765 396.377 248.493 406.63 246.432C416.883 244.37 405.812 269.981 405.812 269.981C425.729 261.713 418.268 317.133 399.268 310.501C390.749 307.524 392.876 289.777 392.876 289.777" stroke="#323232" stroke-width="5" stroke-linecap="round" stroke-linejoin="round"/>
<path d="M158.728 435.511C154.31 429.817 149.315 422.782 145.923 417.841" stroke="#323232" stroke-width="2" stroke-linecap="round" stroke-linejoin="round"/>
<path d="M152.336 440.681C149.337 436.787 141.429 424.8 138.986 421.135" stroke="#323232" stroke-width="2" stroke-linecap="round" stroke-linejoin="round"/>
<path d="M367 661H85" stroke="#323232" stroke-width="2.5" stroke-miterlimit="10" stroke-linecap="round" stroke-linejoin="round"/>
<path d="M1037 661H655" stroke="#323232" stroke-width="2.5" stroke-miterlimit="10" stroke-linecap="round" stroke-linejoin="round"/>
</g>
<defs>
<linearGradient id="paint0_linear_3861_1714" x1="673.616" y1="191.375" x2="724.866" y2="137.051" gradientUnits="userSpaceOnUse">
<stop offset="0.125" stop-color="#BF2D00"/>
<stop offset="0.302083" stop-color="#FF3C00"/>
<stop offset="1" stop-color="#FFB199" stop-opacity="0"/>
</linearGradient>
<linearGradient id="paint1_linear_3861_1714" x1="546.654" y1="535.094" x2="573.217" y2="508.532" gradientUnits="userSpaceOnUse">
<stop stop-color="#FF3C00"/>
<stop offset="1" stop-color="#FF3C00" stop-opacity="0"/>
</linearGradient>
<linearGradient id="paint2_linear_3861_1714" x1="780.399" y1="408.795" x2="1016" y2="376" gradientUnits="userSpaceOnUse">
<stop stop-color="#968BCD"/>
<stop offset="0.0909109" stop-color="#A896D0"/>
<stop offset="0.364583" stop-color="#AFACD9"/>
<stop offset="0.859375" stop-color="#C3F0F7"/>
</linearGradient>
<linearGradient id="paint3_linear_3861_1714" x1="779.831" y1="408.354" x2="1052.72" y2="408.354" gradientUnits="userSpaceOnUse">
<stop stop-color="#968BCD"/>
<stop offset="0.0909109" stop-color="#A896D0"/>
<stop offset="0.3493" stop-color="#D7B3D7"/>
<stop offset="0.5477" stop-color="#F4C5DB"/>
<stop offset="0.661" stop-color="#FFCCDD"/>
</linearGradient>
<linearGradient id="paint4_linear_3861_1714" x1="85.6377" y1="206.567" x2="439.655" y2="243.669" gradientUnits="userSpaceOnUse">
<stop offset="0.401042" stop-color="#A18FD6"/>
<stop offset="1" stop-color="#C3F0F7"/>
</linearGradient>
<clipPath id="clip0_3861_1714">
<rect width="1080" height="720" fill="white"/>
</clipPath>
</defs>
</svg>
