<svg width="1080" height="720" viewBox="0 0 1080 720" fill="none" xmlns="http://www.w3.org/2000/svg">
<g clip-path="url(#clip0_3877_1360)">
<rect width="1080" height="720" fill="#E4DFF3"/>
<path d="M94 300.22C148.266 305.854 202.926 294.22 250.186 266.978C270.684 255.09 290.512 239.017 298.047 216.566C299.813 211.327 300.739 205.177 297.648 200.564C292.491 192.919 280.555 195.055 272.578 199.653C256.24 209.063 243.634 226.788 244.916 245.58C250.884 332.609 415.845 297.16 459.09 274.922C449.034 280.09 443.935 320.365 442.553 331.157C438.009 366.606 443.052 404.675 469.702 430.742C498.575 458.987 541.777 461.507 579.766 456.368C658.513 445.606 732.231 411.521 791.419 358.505C806.846 344.624 821.603 328.865 828.354 309.246C835.106 289.628 832.001 265.355 816.104 252.001C800.208 238.647 771.235 242.705 763.771 262.066C758.074 276.645 766.264 293.857 779.141 302.712C792.018 311.567 808.398 313.631 824.024 313.389C854.677 312.905 885.06 307.695 915.329 302.755C960.254 295.494 996.093 291.508 1018 323.355" stroke="#FF3C00" stroke-width="6" stroke-linecap="round" stroke-linejoin="round"/>
<path d="M704.643 -63C704.643 134.515 704.643 591.936 704.643 591.936H364.431C364.431 591.936 364.431 163.12 364.431 -62.9959C510.092 -62.9966 558.354 -62.9996 704.643 -63Z" fill="#E4DFF3"/>
<path d="M632 487H348C325.909 487 308 504.909 308 527V589H672V527C672 504.909 654.091 487 632 487Z" fill="#2E2E2E"/>
<path d="M476.174 184.419C454.947 162.346 419.292 165.739 408.252 178.475C401.45 186.321 397.835 193.584 380.236 208.191C327.897 251.62 318.258 263.377 317.412 291.392C314.727 379.913 367.285 440.45 459.344 388.297C524.011 351.658 398.665 290.55 440.344 233.268C448.421 222.171 450.122 233.329 461.943 223.547C475.647 212.203 494.424 203.398 476.174 184.419V184.419Z" fill="#FF3900"/>
<path d="M475.388 302.104C473.101 316.837 465.652 344.954 465.652 344.954L465.32 359.168C465.32 359.168 500.355 354.597 501.695 344.322C502.367 339.181 505.533 319.837 506.035 311.959L475.388 302.109V302.104Z" fill="white"/>
<path d="M576.362 394.691C576.362 394.691 613.677 374.133 632.992 374.133C645.512 374.133 670.916 386.034 710.5 431.387C730.16 453.912 755.247 482.85 773.771 504.25C790.845 523.974 804.812 546.156 815.258 570.06L825.5 593.5L854 608.5H769C769 608.5 769.434 609.5 770 602.5C749 593.5 638.296 436.289 638.296 436.289L628.899 431.387C629.094 431.763 621.393 423.047 611.386 410.537C594.973 390.019 576.362 394.691 576.362 394.691ZM590.787 393.274C578.042 388.177 514.683 417.869 461.737 438.589C414.118 457.22 381.167 425.929 381.167 425.929L377.921 443.05C371.018 479.458 363.678 511.28 400.734 511.102C417.632 511.021 469.882 509.919 485.906 504.195C524.537 490.397 571.079 475.515 571.079 475.515C571.079 475.515 601.558 495.485 615.5 532C625.236 557.5 659 609 690 617.5C690 628 690.598 624.5 690.598 624.5H783L761 608.5L744.339 599.033C741.298 597.306 740.041 593.57 741.419 590.356V590.356C745.462 580.923 743.954 570.077 737.436 562.149C710.849 529.814 641.32 445.299 613.665 412.112C605.434 402.233 599.273 396.667 590.783 393.27L590.787 393.274ZM436.992 189.367L423.798 219.723C423.798 219.723 416.689 213.067 410.936 219.5C405.183 225.933 407.835 232.759 414.268 235.69C406.827 253.973 395.268 278.515 395.268 278.515L439.595 289.616C439.595 289.616 431.851 267.612 431.709 260.341C438.085 263.669 450.101 264.171 458.057 259.26C464.579 255.236 469.279 245.548 467.583 234.828C472.239 232.824 479.315 226.022 479.315 226.022C479.315 226.022 467.162 226.718 464.7 215.476C458.599 187.606 436.992 189.363 436.992 189.363V189.367ZM516.699 271.523C509.4 260.795 492.121 254.094 492.121 254.094C492.121 254.094 489.53 251.973 490.335 243.52C491.526 231.01 490.939 221.654 485.882 223.552C482.307 224.893 482.89 236.075 481.995 242.329C481.101 248.584 477.38 287.608 475.591 301.903C475.404 303.385 475.121 305.025 474.765 306.774C483.983 309.142 496.72 312.361 505.946 314.51C506.493 306.085 506.865 298.774 506.865 298.774C506.845 299.162 511.902 296.847 512.068 296.729C514.711 294.887 515.825 292.665 516.914 289.64C518.732 284.584 519.93 276.28 516.699 271.523Z" fill="url(#paint0_linear_3877_1360)"/>
<path d="M451.786 232.83C459.716 232.83 466.146 226.401 466.146 218.47C466.146 210.54 459.716 204.11 451.786 204.11C443.855 204.11 437.425 210.54 437.425 218.47C437.425 226.401 443.855 232.83 451.786 232.83Z" stroke="#2E2E2E" stroke-width="2.5" stroke-linecap="round" stroke-linejoin="round"/>
<path d="M455.68 228.662C457.663 228.662 459.271 227.054 459.271 225.071C459.271 223.087 457.663 221.479 455.68 221.479C453.697 221.479 452.089 223.087 452.089 225.071C452.089 227.054 453.697 228.662 455.68 228.662Z" fill="#2E2E2E"/>
<path d="M466.145 244.771C457.789 245.443 449.271 241.872 443.215 236.192" stroke="#2E2E2E" stroke-width="2.5" stroke-linecap="round" stroke-linejoin="round"/>
<path d="M437.401 217.629L423.183 218.422" stroke="#2E2E2E" stroke-width="2.5" stroke-linecap="round" stroke-linejoin="round"/>
<path d="M507.129 296.502C509.465 289.19 510.63 281.506 510.578 273.83" stroke="#2E2E2E" stroke-width="2.5" stroke-linecap="round" stroke-linejoin="round"/>
<path d="M501.768 295.907C504.104 288.595 505.27 280.911 505.218 273.235" stroke="#2E2E2E" stroke-width="2.5" stroke-linecap="round" stroke-linejoin="round"/>
<path d="M496.408 292.926C498.744 285.614 499.91 277.93 499.857 270.254" stroke="#2E2E2E" stroke-width="2.5" stroke-linecap="round" stroke-linejoin="round"/>
<path d="M466.182 333.854C466.182 333.854 470.68 327.077 473.332 313.004C475.769 300.061 476.919 288.495 477.668 287.414C483.748 278.604 490.161 268.568 491.307 257.928C491.428 256.807 491.493 255.629 491.06 254.584C490.627 253.54 489.554 252.677 488.437 252.852C487.724 252.961 487.137 253.451 486.619 253.949C483.623 256.815 481.554 260.637 480.793 264.714" stroke="#2E2E2E" stroke-width="2.5" stroke-linecap="round" stroke-linejoin="round"/>
<path d="M486.748 277.526C487.55 282.838 489.165 288.17 492.477 292.401C495.789 296.631 501.023 299.607 506.38 299.19C511.736 298.773 514.683 296.55 516.408 291.372" stroke="#2E2E2E" stroke-width="2.5" stroke-linecap="round" stroke-linejoin="round"/>
<path d="M564.982 295.753C560.876 295.328 556.881 297.308 554.577 300.733C548.047 310.453 540.861 317.676 534.096 323.008C535.403 318.125 536.168 313.19 533.703 312.073C530.986 310.842 529.043 313.579 528.569 314.441C517.481 334.809 500.137 343.024 500.137 343.024C500.137 343.024 503.983 349.428 507.137 357.594C510.493 366.282 521.432 369.857 525.015 378.452C538.593 370.541 564.573 352.189 572.35 315.68C573.767 309.02 572.957 296.579 564.978 295.753H564.982Z" fill="url(#paint1_linear_3877_1360)"/>
<path d="M547.221 329.145C556.707 319.659 562.864 309.036 566.666 296.898" stroke="#2E2E2E" stroke-width="2.5" stroke-linecap="round" stroke-linejoin="round"/>
<path d="M540.108 325.351C548.642 316.817 555.249 308.113 560.026 297.372" stroke="#2E2E2E" stroke-width="2.5" stroke-linecap="round" stroke-linejoin="round"/>
<path d="M552.909 333.89C562.868 324.878 569.901 309.243 571.403 300.692" stroke="#2E2E2E" stroke-width="2.5" stroke-linecap="round" stroke-linejoin="round"/>
<path d="M526.711 328.446C531.132 326.082 535.031 322.75 538.059 318.754" stroke="#2E2E2E" stroke-width="2.5" stroke-linecap="round" stroke-linejoin="round"/>
<path d="M412.001 277.546C412.001 277.546 436.636 274.291 465.19 313.128C493.967 352.261 491.801 412.122 489.36 421.146C489.36 421.146 441.834 457.473 417.519 440.356C384.216 416.911 412.001 277.546 412.001 277.546V277.546Z" fill="white"/>
<path d="M372.747 403.852C370.84 391.97 371.176 372.019 373.512 360.213C378.41 335.457 388.726 308.093 397.28 284.353L434.114 288.956C440.28 306.142 452.672 343.23 448.393 371.144C464.704 361.723 501.218 338.631 501.218 338.631L532.517 379.415C532.517 379.415 477.664 450.552 422.005 448.349C413.94 448.03 395.24 441.766 389.588 436.005C375.945 422.099 374.653 415.735 372.747 403.852V403.852Z" fill="white"/>
<path d="M430.073 287.106C443.822 297.811 457.753 351.785 446.956 380.36C445.373 384.546 445.405 389.424 441.867 392.517C440.146 394.019 437.846 394.813 435.604 394.392C430.235 393.388 429.446 386.89 431.891 382.829C433.98 379.36 497.627 339.818 501.153 337.826L533.468 379.416C498.59 414.258 474.137 444.674 424.92 447.484C399.985 448.909 373.342 431.282 371.961 401.756C371.398 389.736 370.811 340.753 393.831 294.714" stroke="#323232" stroke-width="5" stroke-linecap="round" stroke-linejoin="round"/>
<path d="M742 595.5C745.5 584.5 740.739 570.176 738 566.5C716.111 537.121 629.635 429.929 623.896 423.042C615.556 413.034 606.92 399.216 590.54 393.856C572.998 388.115 490.364 426.653 472.777 434.025" stroke="#323232" stroke-width="5" stroke-linecap="round" stroke-linejoin="round"/>
<path d="M627.523 363.291C626.122 358.919 621.244 357.356 617.041 359.219C601.22 366.227 542.942 387.623 534.488 391.878C523.464 397.424 526.8 409.124 526.8 409.124L623.41 373.295C626.948 371.656 628.713 367.639 627.519 363.923V363.291H627.523Z" fill="#9C8CD0"/>
<path d="M628.928 252.638L611.673 375.34L627.256 370.198L642.288 254.69C642.928 250.407 639.434 246.638 635.114 246.95C631.98 247.176 629.418 249.537 628.928 252.638Z" fill="#9C8CD0"/>
<path d="M462.123 308.779C462.123 308.779 470.1 321.62 483.317 346.815" stroke="#2E2E2E" stroke-width="2.5" stroke-linecap="round" stroke-linejoin="round"/>
<path d="M469.222 330.393C454.7 337.838 427.826 349.372 412.77 355.671C394.823 317.073 391.046 274.556 393.957 232.091C393.722 235.528 417.778 234.726 420.758 235.564C421.13 246.593 436.417 304.498 469.222 330.393Z" fill="#FF3900"/>
<path d="M580.601 382.237L614.564 368.65" stroke="#2E2E2E" stroke-width="1.04139" stroke-linecap="round" stroke-linejoin="round"/>
<path d="M621.353 360.162L635.786 252.338" stroke="#2E2E2E" stroke-width="1.04139" stroke-linecap="round" stroke-linejoin="round"/>
<path d="M560.419 492.684H367.05V552.537H560.419V492.684Z" fill="#2E2E2E"/>
<path d="M561.246 196.06C561.246 196.06 559.024 191.866 558.466 190.455C557.001 186.761 555.162 181.786 556.579 177.829C557.579 175.038 560.65 173.59 563.441 174.59C565.752 175.418 567.104 178.096 566.631 181.043C568.09 178.061 570.839 177.243 573.15 178.072C575.187 178.801 576.666 180.773 576.851 182.923C577.241 187.497 572.209 190.565 568.792 192.479C567.111 193.42 561.246 196.06 561.246 196.06Z" fill="#FFECE5"/>
<path d="M512.811 142.009C515.594 129.697 507.87 117.464 495.559 114.681C483.247 111.897 471.014 119.621 468.231 131.933C465.447 144.245 473.171 156.478 485.483 159.261C497.794 162.045 510.027 154.321 512.811 142.009Z" fill="url(#paint2_linear_3877_1360)"/>
<path d="M480.207 137.232C482.22 140.194 485.325 142.238 488.845 142.909C490.587 143.241 492.378 143.227 494.114 142.868C495.85 142.508 497.5 141.81 498.965 140.813C500.431 139.817 501.687 138.54 502.663 137.058" stroke="#323232" stroke-width="2.5" stroke-linecap="round" stroke-linejoin="round"/>
<path d="M496.805 128.102C497.534 128.102 498.13 127.51 498.13 126.777C498.13 126.044 497.537 125.452 496.805 125.452C496.072 125.452 495.48 126.044 495.48 126.777C495.48 127.51 496.072 128.102 496.805 128.102Z" fill="#323232" stroke="#323232" stroke-width="2"/>
<path d="M484.236 128.102C484.966 128.102 485.561 127.51 485.561 126.777C485.561 126.044 484.969 125.452 484.236 125.452C483.504 125.452 482.911 126.044 482.911 126.777C482.911 127.51 483.504 128.102 484.236 128.102Z" fill="#323232" stroke="#323232" stroke-width="2"/>
<path d="M486.267 114.634C473.873 117.024 465.765 129.01 468.155 141.4C470.545 153.794 482.531 161.902 494.922 159.512" stroke="#323232" stroke-width="2.5" stroke-linecap="round" stroke-linejoin="round"/>
<path d="M523.78 231.176C523.78 231.176 519.042 228.674 517.618 227.711C513.886 225.185 508.983 221.699 507.675 217.033C506.754 213.746 508.569 210.36 511.732 209.473C514.355 208.737 517.316 210.377 518.819 213.469C518.182 209.696 520.124 207.121 522.746 206.385C525.054 205.738 527.676 206.628 529.244 208.535C532.583 212.599 530.059 218.796 528.234 222.843C527.334 224.836 523.784 231.176 523.784 231.176H523.78Z" stroke="#323232" stroke-width="2.5" stroke-linecap="round" stroke-linejoin="round"/>
<path d="M561.746 249.205C561.746 249.205 560.794 246.395 560.589 245.463C560.051 243.026 559.407 239.756 560.66 237.38C561.544 235.706 563.564 235.038 565.173 235.887C566.508 236.589 567.073 238.38 566.498 240.194C567.679 238.434 569.442 238.14 570.774 238.842C571.948 239.461 572.664 240.817 572.568 242.183C572.363 245.09 568.987 246.62 566.71 247.552C565.591 248.011 561.746 249.205 561.746 249.205V249.205Z" stroke="#323232" stroke-width="2.5" stroke-linecap="round" stroke-linejoin="round"/>
<path d="M560.862 196.905C560.862 196.905 558.644 192.632 558.086 191.191C556.624 187.415 554.789 182.33 556.213 178.215C557.216 175.315 560.291 173.747 563.078 174.713C565.389 175.514 566.738 178.239 566.262 181.29C567.724 178.177 570.476 177.27 572.787 178.071C574.824 178.777 576.303 180.776 576.485 182.988C576.868 187.695 571.832 190.979 568.412 193.033C566.727 194.043 560.859 196.905 560.859 196.905H560.862Z" fill="#FF3900"/>
<path d="M593.415 302.978C593.415 302.978 590.46 301.999 589.553 301.585C587.174 300.496 584.031 298.969 582.836 296.422C581.994 294.628 582.709 292.516 584.435 291.704C585.866 291.033 587.718 291.687 588.875 293.313C588.149 291.215 589.012 289.554 590.443 288.88C591.703 288.287 593.288 288.544 594.37 289.489C596.671 291.495 595.822 295.285 595.165 297.778C594.843 299.007 593.415 302.975 593.415 302.975V302.978Z" fill="#FF3900"/>
<path d="M588.916 336.089C588.916 336.089 588.009 334.552 587.773 334.028C587.157 332.659 586.376 330.81 586.821 329.259C587.136 328.163 588.242 327.523 589.293 327.824C590.166 328.074 590.721 329.057 590.604 330.197C591.084 329.016 592.083 328.626 592.956 328.876C593.723 329.095 594.312 329.807 594.425 330.622C594.661 332.357 592.861 333.676 591.635 334.504C591.032 334.912 588.913 336.089 588.913 336.089H588.916Z" fill="#FF3900"/>
<path d="M558.466 190.455C557.001 186.761 555.162 181.786 556.579 177.829C557.579 175.038 560.65 173.59 563.441 174.59C565.752 175.418 567.104 178.096 566.631 181.043C568.09 178.061 570.839 177.243 573.15 178.072C575.187 178.801 576.666 180.773 576.851 182.923C577.241 187.497 572.209 190.565 568.792 192.479" stroke="#323232" stroke-width="2.5" stroke-linecap="round" stroke-linejoin="round"/>
</g>
<defs>
<linearGradient id="paint0_linear_3877_1360" x1="420.333" y1="545.591" x2="638.988" y2="326.935" gradientUnits="userSpaceOnUse">
<stop stop-color="#FF3C00"/>
<stop offset="1" stop-color="#FFE05E"/>
</linearGradient>
<linearGradient id="paint1_linear_3877_1360" x1="502.74" y1="329.135" x2="567.464" y2="341.388" gradientUnits="userSpaceOnUse">
<stop stop-color="#FF3C00"/>
<stop offset="1" stop-color="#FFE05E"/>
</linearGradient>
<linearGradient id="paint2_linear_3877_1360" x1="476.328" y1="151.17" x2="508.669" y2="118.794" gradientUnits="userSpaceOnUse">
<stop stop-color="#FF3C00"/>
<stop offset="1" stop-color="#FF5119" stop-opacity="0"/>
</linearGradient>
<clipPath id="clip0_3877_1360">
<rect width="1080" height="720" fill="white"/>
</clipPath>
</defs>
</svg>
