<svg width="1080" height="720" viewBox="0 0 1080 720" fill="none" xmlns="http://www.w3.org/2000/svg">
<g clip-path="url(#clip0_603_16319)">
<path d="M1086.87 -10.26H-9.20996V727.91H1086.87V-10.26Z" fill="#C3F0F7"/>
<path d="M880.65 459.49H624.81C615.16 459.49 607.33 467.31 607.33 476.97V622.64C607.33 633.686 616.284 642.64 627.33 642.64H878.13C889.176 642.64 898.13 633.686 898.13 622.64V476.96C898.13 467.31 890.3 459.49 880.65 459.49Z" fill="url(#paint0_linear_603_16319)"/>
<path d="M764.508 178H508.492C498.835 178 491 185.472 491 194.702V333C491 344.045 499.954 353 511 353H762C773.046 353 782 344.045 782 333V194.692C782 185.472 774.165 178 764.508 178Z" fill="url(#paint1_linear_603_16319)"/>
<path d="M284.38 455.806H399.99C411.036 455.806 419.99 446.851 419.99 435.806V290.135C419.99 280.485 412.17 272.656 402.51 272.656H146.67C137.02 272.656 129.19 280.475 129.19 290.135V435.805C129.19 446.851 138.144 455.806 149.19 455.806H176.72" fill="url(#paint2_linear_603_16319)"/>
<path d="M529.527 262.939C503.341 263.33 503.252 302.283 529.439 302.779C555.624 302.398 555.703 263.443 529.527 262.939Z" fill="url(#paint3_linear_603_16319)"/>
<path d="M529.527 262.939C503.341 263.33 503.252 302.283 529.439 302.779C555.624 302.398 555.703 263.443 529.527 262.939Z" fill="white"/>
<path d="M581.948 263.06C555.762 263.451 555.673 302.404 581.86 302.9C608.046 302.509 608.135 263.556 581.948 263.06Z" fill="url(#paint4_linear_603_16319)"/>
<path d="M581.948 263.06C555.762 263.451 555.673 302.404 581.86 302.9C608.046 302.509 608.135 263.556 581.948 263.06Z" fill="white"/>
<path d="M634.38 263.172C608.194 263.563 608.105 302.516 634.292 303.012C660.477 302.631 660.566 263.678 634.38 263.172Z" fill="url(#paint5_linear_603_16319)"/>
<path d="M634.38 263.172C608.194 263.563 608.105 302.516 634.292 303.012C660.477 302.631 660.566 263.678 634.38 263.172Z" fill="white"/>
<path d="M686.801 263.293C660.615 263.684 660.526 302.637 686.713 303.133C712.908 302.754 712.986 263.799 686.801 263.293Z" fill="url(#paint6_linear_603_16319)"/>
<path d="M686.801 263.293C660.615 263.684 660.526 302.637 686.713 303.133C712.908 302.754 712.986 263.799 686.801 263.293Z" fill="white"/>
<path d="M739.232 263.416C713.046 263.807 712.957 302.76 739.144 303.256C765.33 302.865 765.419 263.912 739.232 263.416Z" fill="url(#paint7_linear_603_16319)"/>
<path d="M739.232 263.416C713.046 263.807 712.957 302.76 739.144 303.256C765.33 302.865 765.419 263.912 739.232 263.416Z" fill="white"/>
<path d="M517.681 234.295L680.214 233.839" stroke="#2E2E2E" stroke-width="2" stroke-miterlimit="10" stroke-linecap="round" stroke-linejoin="round"/>
<path d="M517.634 214.369L632.965 214.044" stroke="#2E2E2E" stroke-width="2" stroke-miterlimit="10" stroke-linecap="round" stroke-linejoin="round"/>
<path d="M650.795 214.001L729.437 213.775" stroke="#2E2E2E" stroke-width="2" stroke-miterlimit="10" stroke-linecap="round" stroke-linejoin="round"/>
<path d="M532.166 293.358L527.654 293.371L527.604 275.978L522.223 277.664L522.212 273.994L531.617 270.595L532.101 270.594L532.166 293.358Z" fill="#2E2E2E"/>
<path d="M589.914 293.195L574.332 293.24L574.323 290.148L581.654 282.289C582.661 281.183 583.402 280.218 583.879 279.394C584.366 278.571 584.608 277.789 584.606 277.05C584.603 276.041 584.346 275.25 583.834 274.679C583.322 274.098 582.593 273.808 581.646 273.811C580.626 273.814 579.82 274.17 579.229 274.88C578.648 275.579 578.359 276.501 578.362 277.646L573.834 277.659C573.83 276.274 574.155 275.009 574.807 273.862C575.47 272.715 576.404 271.817 577.61 271.168C578.815 270.509 580.183 270.177 581.713 270.173C584.055 270.166 585.873 270.723 587.167 271.844C588.472 272.964 589.127 274.55 589.132 276.6C589.136 277.724 588.848 278.87 588.268 280.038C587.688 281.205 586.693 282.566 585.282 284.121L580.129 289.585L589.903 289.557L589.914 293.195Z" fill="#2E2E2E"/>
<path d="M632.01 279.712L634.414 279.705C635.559 279.702 636.407 279.413 636.957 278.839C637.507 278.265 637.78 277.504 637.778 276.557C637.775 275.641 637.497 274.929 636.944 274.421C636.401 273.912 635.651 273.659 634.694 273.662C633.83 273.664 633.107 273.906 632.525 274.386C631.944 274.856 631.654 275.471 631.656 276.231L627.144 276.244C627.141 275.058 627.455 273.995 628.087 273.056C628.73 272.107 629.623 271.366 630.767 270.832C631.92 270.297 633.19 270.028 634.574 270.024C636.978 270.018 638.864 270.59 640.231 271.741C641.598 272.882 642.284 274.463 642.29 276.482C642.293 277.523 641.978 278.481 641.346 279.357C640.713 280.234 639.882 280.907 638.853 281.379C640.135 281.833 641.089 282.517 641.716 283.432C642.354 284.346 642.674 285.427 642.678 286.676C642.684 288.696 641.949 290.316 640.475 291.538C639.011 292.76 637.066 293.375 634.641 293.382C632.372 293.388 630.512 292.795 629.062 291.602C627.622 290.409 626.899 288.829 626.893 286.862L631.406 286.849C631.408 287.703 631.728 288.399 632.364 288.939C633.011 289.478 633.803 289.746 634.74 289.744C635.812 289.741 636.649 289.457 637.251 288.893C637.863 288.319 638.168 287.564 638.166 286.627C638.159 284.358 636.907 283.227 634.409 283.234L632.02 283.241L632.01 279.712Z" fill="#2E2E2E"/>
<path d="M691.113 284.354L693.689 284.347L693.699 287.985L691.123 287.992L691.137 292.91L686.625 292.923L686.611 288.005L677.29 288.032L677.079 285.191L686.513 270.19L691.072 270.177L691.113 284.354ZM681.573 284.382L686.6 284.367L686.577 276.342L686.282 276.858L681.573 284.382Z" fill="#2E2E2E"/>
<path d="M731.951 282.614L733.23 271.056L745.97 271.02L745.981 274.783L736.941 274.809L736.393 279.697C737.463 279.122 738.602 278.832 739.809 278.829C741.974 278.822 743.673 279.489 744.905 280.828C746.137 282.167 746.757 284.045 746.764 286.459C746.768 287.927 746.459 289.245 745.838 290.412C745.227 291.569 744.345 292.472 743.192 293.121C742.038 293.759 740.675 294.08 739.104 294.085C737.73 294.089 736.454 293.817 735.276 293.268C734.098 292.71 733.164 291.926 732.474 290.919C731.795 289.911 731.433 288.762 731.387 287.471L735.853 287.459C735.949 288.406 736.279 289.144 736.843 289.673C737.417 290.192 738.162 290.45 739.078 290.447C740.098 290.444 740.882 290.078 741.432 289.347C741.982 288.607 742.254 287.565 742.251 286.222C742.247 284.932 741.927 283.944 741.29 283.259C740.653 282.573 739.752 282.233 738.586 282.236C737.514 282.239 736.645 282.522 735.981 283.086L735.545 283.494L731.951 282.614Z" fill="#2E2E2E"/>
<path d="M680.84 252.43C665.6 258.646 657.906 274.644 656.576 289.956C655.708 299.903 658.009 311.072 667.366 316.392C675.436 320.964 685.021 318.694 692.802 314.662C705.69 307.982 716.574 293.034 719.677 278.651C723.526 260.839 712.014 241.222 691.442 247.676C684.018 250.011 678.195 255.423 674.233 261.587C670.271 267.751 667.943 274.68 665.648 281.545" stroke="#FF3C00" stroke-width="2" stroke-miterlimit="10" stroke-linecap="round" stroke-linejoin="round"/>
<path d="M629 545.149L820.833 544.132" stroke="#2E2E2E" stroke-width="2" stroke-miterlimit="10" stroke-linecap="round"/>
<path d="M629.165 572.197L821 571.195" stroke="#2E2E2E" stroke-width="2" stroke-miterlimit="10" stroke-linecap="round"/>
<path d="M629.165 515.149L781 515.149" stroke="#2E2E2E" stroke-width="2" stroke-miterlimit="10" stroke-linecap="round"/>
<path d="M629.349 599.258L749.029 598.622" stroke="#2E2E2E" stroke-width="2" stroke-miterlimit="10" stroke-linecap="round"/>
<path d="M663.25 108.12C684.193 108.12 701.17 91.1427 701.17 70.2C701.17 49.2574 684.193 32.28 663.25 32.28C642.307 32.28 625.33 49.2574 625.33 70.2C625.33 91.1427 642.307 108.12 663.25 108.12Z" fill="#2E2E2E"/>
<path d="M627.24 70.1301C630.918 70.1301 633.9 67.1483 633.9 63.4701C633.9 59.7918 630.918 56.8101 627.24 56.8101C623.562 56.8101 620.58 59.7918 620.58 63.4701C620.58 67.1483 623.562 70.1301 627.24 70.1301Z" fill="#2E2E2E"/>
<path d="M630.01 58.66C633.688 58.66 636.67 55.6782 636.67 52C636.67 48.3217 633.688 45.34 630.01 45.34C626.332 45.34 623.35 48.3217 623.35 52C623.35 55.6782 626.332 58.66 630.01 58.66Z" fill="#2E2E2E"/>
<path d="M637.53 48.37C641.208 48.37 644.19 45.3883 644.19 41.71C644.19 38.0318 641.208 35.05 637.53 35.05C633.852 35.05 630.87 38.0318 630.87 41.71C630.87 45.3883 633.852 48.37 637.53 48.37Z" fill="#2E2E2E"/>
<path d="M649 42.83C652.679 42.83 655.66 39.8482 655.66 36.17C655.66 32.4918 652.679 29.51 649 29.51C645.322 29.51 642.34 32.4918 642.34 36.17C642.34 39.8482 645.322 42.83 649 42.83Z" fill="#2E2E2E"/>
<path d="M661.27 40.46C664.949 40.46 667.93 37.4782 667.93 33.8C667.93 30.1218 664.949 27.14 661.27 27.14C657.592 27.14 654.61 30.1218 654.61 33.8C654.61 37.4782 657.592 40.46 661.27 40.46Z" fill="#2E2E2E"/>
<path d="M673.54 41.6401C677.219 41.6401 680.2 38.6583 680.2 34.9801C680.2 31.3019 677.219 28.3201 673.54 28.3201C669.862 28.3201 666.88 31.3019 666.88 34.9801C666.88 38.6583 669.862 41.6401 673.54 41.6401Z" fill="#2E2E2E"/>
<path d="M685.01 47.18C688.688 47.18 691.67 44.1982 691.67 40.52C691.67 36.8418 688.688 33.86 685.01 33.86C681.332 33.86 678.35 36.8418 678.35 40.52C678.35 44.1982 681.332 47.18 685.01 47.18Z" fill="#2E2E2E"/>
<path d="M692.93 56.68C696.609 56.68 699.591 53.6982 699.591 50.02C699.591 46.3418 696.609 43.36 692.93 43.36C689.252 43.36 686.271 46.3418 686.271 50.02C686.271 53.6982 689.252 56.68 692.93 56.68Z" fill="#2E2E2E"/>
<path d="M698.07 67.36C701.748 67.36 704.73 64.3783 704.73 60.7C704.73 57.0218 701.748 54.04 698.07 54.04C694.392 54.04 691.41 57.0218 691.41 60.7C691.41 64.3783 694.392 67.36 698.07 67.36Z" fill="#2E2E2E"/>
<path d="M700.08 79.04C703.759 79.04 706.74 76.0582 706.74 72.38C706.74 68.7018 703.759 65.72 700.08 65.72C696.402 65.72 693.42 68.7018 693.42 72.38C693.42 76.0582 696.402 79.04 700.08 79.04Z" fill="#2E2E2E"/>
<path d="M697.31 90.12C700.989 90.12 703.97 87.1383 703.97 83.46C703.97 79.7818 700.989 76.8 697.31 76.8C693.632 76.8 690.65 79.7818 690.65 83.46C690.65 87.1383 693.632 90.12 697.31 90.12Z" fill="#2E2E2E"/>
<path d="M692.17 101.6C695.848 101.6 698.83 98.6182 698.83 94.94C698.83 91.2618 695.848 88.28 692.17 88.28C688.492 88.28 685.51 91.2618 685.51 94.94C685.51 98.6182 688.492 101.6 692.17 101.6Z" fill="#2E2E2E"/>
<path d="M670 124L612.14 120.52V177.68H680.99L670 124Z" fill="white"/>
<path d="M642.28 64.2C645.958 64.2 648.94 61.2182 648.94 57.54C648.94 53.8618 645.958 50.88 642.28 50.88C638.602 50.88 635.62 53.8618 635.62 57.54C635.62 61.2182 638.602 64.2 642.28 64.2Z" fill="#2E2E2E"/>
<path d="M710.24 177.78L671.64 115.51C671.64 115.51 686.59 114.01 692.55 112.74C694.17 112.65 695.77 112.2 697.17 111.4C715.98 100.67 689.79 72.89 681.54 90.64C680.9 92.02 680.63 93.51 680.58 95.02C677.17 94.6 673.39 94.31 669.59 94.38C669.14 91.35 668.79 87.89 669.12 85.7C673.08 85.3 675.5 83.97 676.51 80.95C677.43 78.18 676.64 72.64 672.29 71.45C669.14 70.59 666.7 71.37 664.38 73.03C663.85 60.9 654.13 49.08 639.05 57.2C632.19 60.89 628.88 66.78 624.8 69.33C622.82 70.56 619.58 70.53 616.68 70.14C613.65 69.73 611.59 73.04 613.24 75.61C614.26 77.2 615.62 78.64 617.41 79.35C611.29 84.5 611.67 93.97 614.89 101.28C618.11 108.6 626.44 113.29 634.36 112.26C632.96 120.8 632.18 128.94 630.07 137.38C634.53 139.26 641.6 139.96 647.88 139.51C651.85 151.29 657.27 165.9 660.92 177.52L710.24 177.78Z" fill="url(#paint8_linear_603_16319)"/>
<path d="M710.24 177.78L671.64 115.51C671.64 115.51 686.59 114.01 692.55 112.74C694.17 112.65 695.77 112.2 697.17 111.4C715.98 100.67 689.79 72.89 681.54 90.64C680.9 92.02 680.63 93.51 680.58 95.02C677.17 94.6 673.39 94.31 669.59 94.38C669.14 91.35 668.79 87.89 669.12 85.7C673.08 85.3 675.5 83.97 676.51 80.95C677.43 78.18 676.64 72.64 672.29 71.45C669.14 70.59 666.7 71.37 664.38 73.03C663.85 60.9 654.13 49.08 639.05 57.2C632.19 60.89 628.88 66.78 624.8 69.33C622.82 70.56 619.58 70.53 616.68 70.14C613.65 69.73 611.59 73.04 613.24 75.61C614.26 77.2 615.62 78.64 617.41 79.35C611.29 84.5 611.67 93.97 614.89 101.28C618.11 108.6 626.44 113.29 634.36 112.26C632.96 120.8 632.18 128.94 630.07 137.38C634.53 139.26 641.6 139.96 647.88 139.51C651.85 151.29 657.27 165.9 660.92 177.52L710.24 177.78Z" fill="url(#paint9_radial_603_16319)"/>
<path d="M580.94 111.93C582.34 112.73 583.95 113.18 585.56 113.27C591.51 114.54 606.47 116.04 606.47 116.04L560.49 177.78H619.25C623.71 163.53 628.91 144.75 632.72 132.4C644.23 95.04 615.7 93.3 597.54 95.56C597.48 94.04 597.22 92.56 596.58 91.18C588.31 73.42 562.13 101.2 580.94 111.93Z" fill="#FFCCDE"/>
<path d="M580.94 111.93C582.34 112.73 583.95 113.18 585.56 113.27C591.51 114.54 606.47 116.04 606.47 116.04L560.49 177.78H619.25C623.71 163.53 628.91 144.75 632.72 132.4C644.23 95.04 615.7 93.3 597.54 95.56C597.48 94.04 597.22 92.56 596.58 91.18C588.31 73.42 562.13 101.2 580.94 111.93Z" fill="url(#paint10_radial_603_16319)"/>
<path d="M652.83 63.1401C656.509 63.1401 659.49 60.1583 659.49 56.4801C659.49 52.8019 656.509 49.8201 652.83 49.8201C649.152 49.8201 646.17 52.8019 646.17 56.4801C646.17 60.1583 649.152 63.1401 652.83 63.1401Z" fill="#2E2E2E"/>
<path d="M652.83 68.42C656.509 68.42 659.49 65.4382 659.49 61.76C659.49 58.0818 656.509 55.1 652.83 55.1C649.152 55.1 646.17 58.0818 646.17 61.76C646.17 65.4382 649.152 68.42 652.83 68.42Z" fill="#2E2E2E"/>
<path d="M659.16 76.33C662.838 76.33 665.82 73.3482 665.82 69.67C665.82 65.9918 662.838 63.01 659.16 63.01C655.482 63.01 652.5 65.9918 652.5 69.67C652.5 73.3482 655.482 76.33 659.16 76.33Z" fill="#2E2E2E"/>
<path d="M661.27 68.42C664.949 68.42 667.93 65.4382 667.93 61.76C667.93 58.0818 664.949 55.1 661.27 55.1C657.592 55.1 654.61 58.0818 654.61 61.76C654.61 65.4382 657.592 68.42 661.27 68.42Z" fill="#2E2E2E"/>
<path d="M617.58 177.08C624.1 160.77 626.89 155.37 632.44 134.21C635.36 123.07 637.29 109.69 629.37 101.33C621.53 93.06 608.31 94.12 597.04 95.81C599.31 91.96 596.7 86.51 592.51 84.93C588.33 83.35 583.44 85.01 580.16 88.05C576.42 91.52 574.59 96.79 574.93 101.86C575.23 106.34 578.23 110.21 582.42 111.84C584.57 112.67 587.15 113.16 589.57 113.39C595.98 114 600.98 114.43 604.06 114.69C605.57 114.82 606.35 116.55 605.45 117.76L581.66 149.79" stroke="#2E2E2E" stroke-width="2" stroke-miterlimit="10" stroke-linecap="round"/>
<path d="M594.33 86.49C591.49 89.55 584.83 96.51 588 102.32" stroke="#2E2E2E" stroke-width="2" stroke-miterlimit="10" stroke-linecap="round" stroke-linejoin="round"/>
<path d="M587.73 84.99C585.83 87.07 584.15 89.34 582.72 91.77C580.61 95.35 579.25 100.4 582.22 103.31" stroke="#2E2E2E" stroke-width="2" stroke-miterlimit="10" stroke-linecap="round" stroke-linejoin="round"/>
<path d="M661.85 177.78C652.97 157.78 651.21 154.85 645.66 133.68C642.74 122.54 640.81 109.16 648.73 100.8C656.57 92.53 669.79 93.59 681.06 95.28C678.79 91.43 681.4 85.98 685.59 84.4C689.77 82.82 694.66 84.48 697.94 87.52C701.68 90.99 703.51 96.26 703.17 101.33C702.87 105.81 699.87 109.68 695.68 111.31C693.53 112.14 690.95 112.64 688.53 112.86C681.52 113.51 676.33 113.96 673.38 114.21C672.1 114.32 681.5 131.3 682.18 132.38" stroke="#2E2E2E" stroke-width="2" stroke-miterlimit="10" stroke-linecap="round" stroke-linejoin="round"/>
<path d="M683.78 85.96C686.62 89.02 693.28 95.98 690.11 101.79" stroke="#2E2E2E" stroke-width="2" stroke-miterlimit="10" stroke-linecap="round" stroke-linejoin="round"/>
<path d="M690.37 84.46C692.27 86.54 693.95 88.81 695.38 91.24C697.49 94.82 698.85 99.87 695.88 102.78" stroke="#2E2E2E" stroke-width="2" stroke-miterlimit="10" stroke-linecap="round" stroke-linejoin="round"/>
<path d="M613.25 87.67C620.41 92.14 630.46 91.3 636.78 85.72" stroke="#2E2E2E" stroke-width="2" stroke-miterlimit="10" stroke-linecap="round" stroke-linejoin="round"/>
<path d="M628.09 71.7101C630.69 69.7101 634.3 69.1101 637.41 70.1401C640.52 71.1801 643.04 73.8301 643.93 76.9901" stroke="#2E2E2E" stroke-width="2" stroke-miterlimit="10" stroke-linecap="round" stroke-linejoin="round"/>
<path d="M842.9 361.97C866.67 361.62 881 359.17 891.48 371.76C897.3 378.75 906.48 389.04 913.5 394.83C937.52 414.63 961.23 422.7 989 436.77C1018.09 451.52 1032.83 481.99 1028.84 514.36C1024.85 546.73 1005.42 569.46 974.18 578.87C973.13 579.19 972.03 579.48 970.96 579.22C969.66 578.9 968.71 577.83 967.85 576.82C925.63 527.24 888.79 470.2 859.72 415.36C854.09 404.74 851.23 414.2 842.19 404.26C831.72 392.73 819.84 362.31 842.9 361.97Z" fill="#A18FD6"/>
<path d="M840.81 396.92C837.29 406.37 826.83 404.26 826.83 404.26C826.83 404.26 832.13 411.04 835.92 413.35C833.12 422.44 836 431.42 841.16 435.72C847.45 440.96 857.94 442.01 863.88 439.91C862.86 446.2 859.69 459.48 859.69 459.48L893.24 460.18C893.24 460.18 886.25 437.46 882.06 420.68C888 418.93 891.15 413.34 886.95 407.05C882.76 400.76 875.77 405.65 875.77 405.65L868.08 377.69C868.07 377.7 849.54 373.5 840.81 396.92Z" fill="url(#paint11_radial_603_16319)"/>
<path d="M840.81 396.92C837.29 406.37 826.83 404.26 826.83 404.26C826.83 404.26 832.13 411.04 835.92 413.35C833.12 422.44 836 431.42 841.16 435.72C847.45 440.96 857.94 442.01 863.88 439.91C862.86 446.2 859.69 459.48 859.69 459.48L893.24 460.18C893.24 460.18 886.25 437.46 882.06 420.68C888 418.93 891.15 413.34 886.95 407.05C882.76 400.76 875.77 405.65 875.77 405.65L868.08 377.69C868.07 377.7 849.54 373.5 840.81 396.92Z" fill="url(#paint12_linear_603_16319)"/>
<path d="M979.21 579.08C977.6 566.73 968.59 554.74 962.79 543.72C950.63 520.6 934.25 499.74 918.75 478.71L884.15 496.54C883.1 515.41 884.57 542.13 897.05 568.56C846.47 556.47 796.99 539.78 749.43 518.76C744.76 516.7 740.4 522.21 743.51 526.26C749.9 534.57 761.57 539.94 771.99 543.72C764.85 552.89 768.5 567.71 775.1 577.27C781.7 586.83 794.24 592.71 804.46 598.24C849.35 622.53 896.92 651.33 946.01 637.39C954.05 635.11 967.26 623.81 971.18 616.42C980.61 598.59 980.82 591.44 979.21 579.08Z" fill="white"/>
<path d="M834.6 551.09C805.68 541.82 777.25 531.04 749.47 518.77C744.8 516.71 740.44 522.22 743.55 526.27C749.94 534.58 761.61 539.95 772.03 543.73C764.89 552.9 768.54 567.72 775.14 577.28C781.74 586.84 794.28 592.72 804.5 598.25C809.68 601.05 814.97 603.85 820.34 606.59C824.26 591.3 830.09 568.55 834.6 551.09Z" fill="url(#paint13_radial_603_16319)"/>
<path d="M834.6 551.09C805.68 541.82 777.25 531.04 749.47 518.77C744.8 516.71 740.44 522.22 743.55 526.27C749.94 534.58 761.61 539.95 772.03 543.73C764.89 552.9 768.54 567.72 775.14 577.28C781.74 586.84 794.28 592.72 804.5 598.25C809.68 601.05 814.97 603.85 820.34 606.59C824.26 591.3 830.09 568.55 834.6 551.09Z" fill="url(#paint14_linear_603_16319)"/>
<path d="M890.44 479.76C879.95 494.44 882.05 552.11 901.2 577.28C904 580.97 905.41 585.82 909.84 587.84C911.99 588.82 914.5 588.93 916.61 587.85C921.64 585.27 920.51 578.59 916.88 575.28C913.78 572.46 838.96 551.99 834.87 551.06L821.24 605.58C866.13 629.87 893.2 649.11 942.87 637.39C968.04 631.45 986.91 611.18 979.57 581.47C976.58 569.37 968.59 554.75 962.79 543.72C950.63 520.6 932.15 496.6 916.65 475.56" stroke="#2E2E2E" stroke-width="6" stroke-miterlimit="10" stroke-linejoin="round"/>
<path d="M883.17 453.51C881.98 474.11 880.66 495.25 872.16 514.06C886.11 517.2 900.18 519.8 914.33 521.85C921.11 485.18 915.01 448.28 903.26 412.89C904.21 415.75 882.77 419.92 880.43 421.28C882.51 430.71 883.69 444.53 883.17 453.51Z" fill="#A18FD6"/>
<path d="M771.23 544.77C785.48 551.32 799.56 559.08 799.56 559.08" stroke="#2E2E2E" stroke-width="2" stroke-miterlimit="10" stroke-linecap="round" stroke-linejoin="round"/>
<path d="M768.81 553.29C778.71 560.12 787.31 563.1 797.21 569.93" stroke="#2E2E2E" stroke-width="2" stroke-miterlimit="10" stroke-linecap="round" stroke-linejoin="round"/>
<path d="M768.9 563.87C776.29 569.04 786.21 573.15 793.6 578.32" stroke="#2E2E2E" stroke-width="2" stroke-miterlimit="10" stroke-linecap="round" stroke-linejoin="round"/>
<path d="M851.64 413.7C858.588 413.7 864.22 408.068 864.22 401.12C864.22 394.172 858.588 388.54 851.64 388.54C844.692 388.54 839.06 394.172 839.06 401.12C839.06 408.068 844.692 413.7 851.64 413.7Z" stroke="#2E2E2E" stroke-width="2" stroke-miterlimit="10" stroke-linecap="round" stroke-linejoin="round"/>
<path d="M847.45 409.51C849.19 409.51 850.6 408.1 850.6 406.36C850.6 404.62 849.19 403.21 847.45 403.21C845.711 403.21 844.3 404.62 844.3 406.36C844.3 408.1 845.711 409.51 847.45 409.51Z" fill="#2E2E2E"/>
<path d="M835.93 422.15C844 421.5 853.5 418.5 857.5 425.5" stroke="#2E2E2E" stroke-width="2" stroke-miterlimit="10" stroke-linecap="round" stroke-linejoin="round"/>
<path d="M864.22 402.17L876.46 404.61" stroke="#2E2E2E" stroke-width="2" stroke-miterlimit="10" stroke-linecap="round" stroke-linejoin="round"/>
<path d="M820.18 440.96C814.38 433.94 807.79 426.63 788.95 430.21C775.38 432.79 767.58 446.96 764.61 460.88C761.36 476.07 769.53 489.31 784.52 484.17C807.61 476.25 802.86 457.25 815.99 458.08C816.01 458.08 831.37 458.43 831.37 458.43C831.37 458.43 824.62 446.34 820.18 440.96Z" fill="url(#paint15_radial_603_16319)"/>
<path d="M820.18 440.96C814.38 433.94 807.79 426.63 788.95 430.21C775.38 432.79 767.58 446.96 764.61 460.88C761.36 476.07 769.53 489.31 784.52 484.17C807.61 476.25 802.86 457.25 815.99 458.08C816.01 458.08 831.37 458.43 831.37 458.43C831.37 458.43 824.62 446.34 820.18 440.96Z" fill="url(#paint16_linear_603_16319)"/>
<path d="M781.391 446.9C773.061 456.39 769.67 463.24 765.98 475.31Z" fill="url(#paint17_radial_603_16319)"/>
<path d="M781.391 446.9C773.061 456.39 769.67 463.24 765.98 475.31" stroke="#2E2E2E" stroke-width="2" stroke-miterlimit="10" stroke-linecap="round" stroke-linejoin="round"/>
<path d="M789.87 449.47C781.54 458.96 775.26 470.23 771.57 482.3Z" fill="url(#paint18_radial_603_16319)"/>
<path d="M789.87 449.47C781.54 458.96 775.26 470.23 771.57 482.3" stroke="#2E2E2E" stroke-width="2" stroke-miterlimit="10" stroke-linecap="round" stroke-linejoin="round"/>
<path d="M798.26 451.57C789.93 461.06 783.65 472.33 779.96 484.4Z" fill="url(#paint19_radial_603_16319)"/>
<path d="M798.26 451.57C789.93 461.06 783.65 472.33 779.96 484.4" stroke="#2E2E2E" stroke-width="2" stroke-miterlimit="10" stroke-linecap="round" stroke-linejoin="round"/>
<path d="M414.4 562.94C457.74 604.88 516.89 587.83 536.03 575.52C575.18 550.35 582.14 527.94 596.03 493.26C612.53 452.08 617 391.51 600.35 364.42C589.29 346.43 563.76 331.26 543.56 344.13C520.25 358.98 517.28 396.77 527.63 419.79C519.01 405.65 509.97 391.06 496.24 381.79C463.13 359.41 424.92 392.15 436.77 428.73C456.66 490.12 517.7 504.41 540.23 509.82C615.5 527.88 681.43 493.04 713.59 424.54" stroke="#DC0000" stroke-width="7" stroke-miterlimit="10" stroke-linecap="round" stroke-linejoin="round"/>
<path d="M719.87 413.35C722.571 413.35 724.76 411.161 724.76 408.46C724.76 405.759 722.571 403.57 719.87 403.57C717.17 403.57 714.98 405.759 714.98 408.46C714.98 411.161 717.17 413.35 719.87 413.35Z" fill="#DC0000"/>
<path d="M446.55 529.39L358.48 476.26L364.07 578.32L394.18 560.46L404.69 576.75L430.53 560.07L420.65 544.75L446.55 529.39Z" fill="white" stroke="#2E2E2E" stroke-width="2" stroke-miterlimit="10"/>
<path d="M252.749 391.387C266.9 404.082 288.661 402.902 301.356 388.751C314.05 374.601 312.87 352.839 298.72 340.145C284.57 327.45 262.808 328.631 250.114 342.781C237.419 356.931 238.599 378.693 252.749 391.387Z" fill="url(#paint20_linear_603_16319)"/>
<path d="M365.88 399.017C384.89 399.017 400.301 383.606 400.301 364.596C400.301 345.587 384.89 330.176 365.88 330.176C346.871 330.176 331.46 345.587 331.46 364.596C331.46 383.606 346.871 399.017 365.88 399.017Z" fill="url(#paint21_linear_603_16319)"/>
<path d="M400.301 364.596C400.301 383.645 384.845 399.017 365.88 399.017C346.916 399.017 331.46 383.561 331.46 364.596C331.46 356.242 334.468 348.556 339.397 342.624C345.746 335.022 355.27 330.176 365.88 330.176" stroke="#323232" stroke-width="2" stroke-miterlimit="10" stroke-linecap="round" stroke-linejoin="round"/>
<path d="M300.883 389.409C287.432 402.86 265.627 402.86 252.176 389.409C238.725 375.959 238.725 354.153 252.176 340.703C258.108 334.771 265.627 331.513 273.313 330.761C283.171 329.842 293.364 333.184 300.883 340.703" stroke="#323232" stroke-width="2" stroke-miterlimit="10" stroke-linecap="round" stroke-linejoin="round"/>
<path d="M184.421 400.186C203.43 400.186 218.841 384.776 218.841 365.766C218.841 346.756 203.43 331.345 184.421 331.345C165.411 331.345 150 346.756 150 365.766C150 384.776 165.411 400.186 184.421 400.186Z" fill="url(#paint22_linear_603_16319)"/>
<path d="M160.861 340.703C174.312 327.252 196.117 327.252 209.568 340.703C223.018 354.153 223.018 375.958 209.568 389.409C203.636 395.341 196.117 398.599 188.431 399.351C178.572 400.27 168.38 396.928 160.861 389.409" stroke="#323232" stroke-width="2" stroke-miterlimit="10" stroke-linecap="round" stroke-linejoin="round"/>
<path d="M351.511 357.412C353.034 357.412 354.268 356.177 354.268 354.655C354.268 353.132 353.034 351.898 351.511 351.898C349.988 351.898 348.754 353.132 348.754 354.655C348.754 356.177 349.988 357.412 351.511 357.412Z" fill="#323232"/>
<path d="M379.498 357.412C381.021 357.412 382.255 356.177 382.255 354.655C382.255 353.132 381.021 351.898 379.498 351.898C377.976 351.898 376.741 353.132 376.741 354.655C376.741 356.177 377.976 357.412 379.498 357.412Z" fill="#323232"/>
<path d="M262.285 358.999C263.807 358.999 265.042 357.765 265.042 356.242C265.042 354.719 263.807 353.485 262.285 353.485C260.762 353.485 259.528 354.719 259.528 356.242C259.528 357.765 260.762 358.999 262.285 358.999Z" fill="#323232"/>
<path d="M290.356 358.999C291.879 358.999 293.113 357.765 293.113 356.242C293.113 354.719 291.879 353.485 290.356 353.485C288.833 353.485 287.599 354.719 287.599 356.242C287.599 357.765 288.833 358.999 290.356 358.999Z" fill="#323232"/>
<path d="M344.492 364.763C345.077 376.042 354.434 384.981 365.88 384.981C377.325 384.981 386.682 376.042 387.267 364.763H344.492Z" stroke="#323232" stroke-width="2" stroke-miterlimit="10" stroke-linecap="round" stroke-linejoin="round"/>
<path d="M205.307 379.301C201.882 372.116 194.53 367.187 186.008 367.187C177.57 367.187 170.218 372.032 166.793 379.133" stroke="#323232" stroke-width="2" stroke-miterlimit="10" stroke-linecap="round" stroke-linejoin="round"/>
<path d="M258.441 371.447H293.447" stroke="#323232" stroke-width="2" stroke-miterlimit="10" stroke-linecap="round" stroke-linejoin="round"/>
<path d="M172.056 358.999C173.579 358.999 174.813 357.765 174.813 356.242C174.813 354.719 173.579 353.485 172.056 353.485C170.534 353.485 169.299 354.719 169.299 356.242C169.299 357.765 170.534 358.999 172.056 358.999Z" fill="#323232"/>
<path d="M200.128 358.999C201.65 358.999 202.885 357.765 202.885 356.242C202.885 354.719 201.65 353.485 200.128 353.485C198.605 353.485 197.371 354.719 197.371 356.242C197.371 357.765 198.605 358.999 200.128 358.999Z" fill="#323232"/>
<path d="M74.2098 500.406C73.0098 512.976 72.5798 525.896 76.1398 538.016C79.7098 550.136 87.8598 561.466 99.6198 566.086C117.1 572.956 139.67 568.956 155.76 559.266C202.74 530.986 281.2 452.206 281.2 452.206L243.78 402.836C243.78 402.836 178.62 452.686 148.18 480.156C149.15 472.506 150.12 464.856 151.08 457.216C143.26 457.166 141 453.5 133.5 449C126.5 440 130.26 404.626 127.8 385.906C125.16 365.826 117.46 372.276 106.89 394.406C94.2398 420.856 77.3998 466.986 74.2098 500.406Z" fill="white"/>
<path d="M271.8 381.706C278.78 376.146 298.01 353.046 304.78 355.386C306.06 355.826 307 357.006 307.45 358.286C310.83 367.756 290.61 380.856 287.18 391.486C296.97 399.876 301.42 407.356 303.96 416.656C308.15 432.036 291.66 448.806 282.99 453.006C274.22 447.746 241.05 408.266 241.05 408.266C241.05 408.266 263.91 387.986 271.8 381.706Z" fill="url(#paint23_linear_603_16319)"/>
<path d="M271.8 381.706C278.78 376.146 298.01 353.046 304.78 355.386C306.06 355.826 307 357.006 307.45 358.286C310.83 367.756 290.61 380.856 287.18 391.486C296.97 399.876 301.42 407.356 303.96 416.656C308.15 432.036 291.66 448.806 282.99 453.006C274.22 447.746 241.05 408.266 241.05 408.266C241.05 408.266 263.91 387.986 271.8 381.706Z" fill="url(#paint24_linear_603_16319)"/>
<path d="M271.8 381.706C278.78 376.146 298.01 353.046 304.78 355.386C306.06 355.826 307 357.006 307.45 358.286C310.83 367.756 290.61 380.856 287.18 391.486C296.97 399.876 301.42 407.356 303.96 416.656C308.15 432.036 291.66 448.806 282.99 453.006C274.22 447.746 241.05 408.266 241.05 408.266C241.05 408.266 263.91 387.986 271.8 381.706Z" fill="url(#paint25_linear_603_16319)"/>
<path d="M271.8 381.706C278.78 376.146 298.01 353.046 304.78 355.386C306.06 355.826 307 357.006 307.45 358.286C310.83 367.756 290.61 380.856 287.18 391.486C296.97 399.876 301.42 407.356 303.96 416.656C308.15 432.036 291.66 448.806 282.99 453.006C274.22 447.746 241.05 408.266 241.05 408.266C241.05 408.266 263.91 387.986 271.8 381.706Z" fill="url(#paint26_radial_603_16319)"/>
<path d="M152.26 457.906C152.43 471.626 152.4 483.236 150.7 496.846C149.74 504.566 147.96 513.096 141.58 517.546C138.59 519.626 134.19 520.386 131.46 517.976C129.31 516.076 128.89 512.886 129.1 510.026C130.1 496.006 141.9 485.516 152.87 476.736C189 447.836 203.4 435.176 241.05 408.276L282.99 453.016" stroke="#2E2E2E" stroke-width="6" stroke-miterlimit="10" stroke-linecap="round" stroke-linejoin="round"/>
<path d="M233.75 253.966C243.84 246.096 255.85 243.826 266.55 248.196C273.36 250.976 279.29 256.826 281.23 263.926C284.38 275.456 282.67 292.836 279.11 296.086C268.65 305.626 249.89 306.206 241.44 294.856C236.77 288.576 234.04 271.266 234.04 271.266H218.66C218.67 271.266 226.8 259.396 233.75 253.966Z" fill="url(#paint27_linear_603_16319)"/>
<path d="M233.75 253.966C243.84 246.096 255.85 243.826 266.55 248.196C273.36 250.976 279.29 256.826 281.23 263.926C284.38 275.456 282.67 292.836 279.11 296.086C268.65 305.626 249.89 306.206 241.44 294.856C236.77 288.576 234.04 271.266 234.04 271.266H218.66C218.67 271.266 226.8 259.396 233.75 253.966Z" fill="url(#paint28_linear_603_16319)"/>
<path d="M233.75 253.966C243.84 246.096 255.85 243.826 266.55 248.196C273.36 250.976 279.29 256.826 281.23 263.926C284.38 275.456 282.67 292.836 279.11 296.086C268.65 305.626 249.89 306.206 241.44 294.856C236.77 288.576 234.04 271.266 234.04 271.266H218.66C218.67 271.266 226.8 259.396 233.75 253.966Z" fill="url(#paint29_linear_603_16319)"/>
<path d="M233.75 253.966C243.84 246.096 255.85 243.826 266.55 248.196C273.36 250.976 279.29 256.826 281.23 263.926C284.38 275.456 282.67 292.836 279.11 296.086C268.65 305.626 249.89 306.206 241.44 294.856C236.77 288.576 234.04 271.266 234.04 271.266H218.66C218.67 271.266 226.8 259.396 233.75 253.966Z" fill="url(#paint30_radial_603_16319)"/>
<path d="M120.36 338.846C125.7 332.366 127.94 323.176 125.26 315.216C122.58 307.256 117.25 298.496 108.5 305.176C104.079 308.551 105.5 315.236 109.44 315.236C106.18 311.436 103.61 310.765 100 312.176C96.0115 313.735 95.0801 316.796 95.5001 322.176C86.5001 326.176 79.5001 331.176 76.7601 343.916C73 346.676 68.6997 352.452 67 359.676C65.4706 366.176 66.5 368.676 69.5001 373.676C69.4671 379.077 71.6186 383.464 78 388.606C87.31 396.106 98.4101 392.456 114.74 388.606C111.84 380.976 98.1201 354.276 98.1201 354.276C98.1201 354.276 115.13 345.186 120.36 338.846Z" fill="#2E2E2E"/>
<path d="M148.34 383.476C156.68 370.056 146 357.016 145.62 355.406C145.36 354.306 146.34 338.086 146.34 338.086C146.34 338.086 145.18 338.926 143.48 340.116C139.09 343.186 133.11 342.576 129.45 338.676C127.82 336.946 126.17 335.086 124.07 332.766C115.45 343.646 107.64 347.246 95.07 349.436C97.99 360.156 99.21 363.946 101.87 376.776C98.2 376.336 95.01 378.266 93.68 381.726C91.76 386.696 95.74 391.686 101.02 390.946C103.56 390.586 105.61 389.166 107.58 387.026C119.31 395.766 142.46 392.936 148.34 383.476Z" fill="url(#paint31_linear_603_16319)"/>
<path d="M148.34 383.476C156.68 370.056 146 357.016 145.62 355.406C145.36 354.306 146.34 338.086 146.34 338.086C146.34 338.086 145.18 338.926 143.48 340.116C139.09 343.186 133.11 342.576 129.45 338.676C127.82 336.946 126.17 335.086 124.07 332.766C115.45 343.646 107.64 347.246 95.07 349.436C97.99 360.156 99.21 363.946 101.87 376.776C98.2 376.336 95.01 378.266 93.68 381.726C91.76 386.696 95.74 391.686 101.02 390.946C103.56 390.586 105.61 389.166 107.58 387.026C119.31 395.766 142.46 392.936 148.34 383.476Z" fill="url(#paint32_radial_603_16319)"/>
<path d="M108.22 389.746C114.41 402.096 121.9 414.316 129.28 425.996" stroke="#2E2E2E" stroke-width="2" stroke-miterlimit="10"/>
<path d="M267.62 410.736C274.25 404.086 280.89 397.436 287.52 390.786" stroke="#2E2E2E" stroke-width="2" stroke-miterlimit="10" stroke-linecap="round" stroke-linejoin="round"/>
<path d="M273.92 419.136C280.55 412.486 287.19 405.836 293.82 399.186" stroke="#2E2E2E" stroke-width="2" stroke-miterlimit="10" stroke-linecap="round" stroke-linejoin="round"/>
<path d="M280.21 427.516C286.84 420.866 293.48 414.216 300.11 407.566" stroke="#2E2E2E" stroke-width="2" stroke-miterlimit="10" stroke-linecap="round" stroke-linejoin="round"/>
<path d="M250.98 273.616C252.19 283.386 253.4 293.146 254.62 302.916" stroke="#2E2E2E" stroke-width="2" stroke-miterlimit="10" stroke-linecap="round" stroke-linejoin="round"/>
<path d="M260.54 273.156C261.75 282.926 262.96 292.686 264.18 302.456" stroke="#2E2E2E" stroke-width="2" stroke-miterlimit="10" stroke-linecap="round" stroke-linejoin="round"/>
<path d="M270.56 270.126C271.77 279.896 272.98 289.656 274.2 299.426" stroke="#2E2E2E" stroke-width="2" stroke-miterlimit="10" stroke-linecap="round" stroke-linejoin="round"/>
<path d="M123.43 348.326C124.877 348.326 126.05 347.153 126.05 345.706C126.05 344.259 124.877 343.086 123.43 343.086C121.983 343.086 120.81 344.259 120.81 345.706C120.81 347.153 121.983 348.326 123.43 348.326Z" fill="#2E2E2E"/>
<path d="M129.76 360.916C134.79 363.066 141.47 360.996 145.98 357.476" stroke="#2E2E2E" stroke-width="2" stroke-miterlimit="10" stroke-linecap="round" stroke-linejoin="round"/>
<path d="M112.32 354.086C113.14 347.646 115.81 341.446 119.94 336.426" stroke="#2E2E2E" stroke-width="2" stroke-miterlimit="10" stroke-linecap="round" stroke-linejoin="round"/>
<path d="M825.396 526.098C837.145 525.591 846.258 515.655 845.751 503.907C845.244 492.158 835.309 483.044 823.56 483.551C811.811 484.058 802.698 493.994 803.205 505.743C803.712 517.491 813.647 526.605 825.396 526.098Z" fill="url(#paint33_linear_603_16319)"/>
<path d="M656.936 625.749C667.388 626.791 676.707 619.162 677.749 608.709C678.791 598.257 671.162 588.938 660.709 587.896C650.257 586.854 640.938 594.483 639.896 604.936C638.854 615.388 646.483 624.707 656.936 625.749Z" fill="url(#paint34_linear_603_16319)"/>
<path d="M656.936 625.749C667.388 626.791 676.707 619.162 677.749 608.709C678.791 598.257 671.162 588.938 660.709 587.896C650.257 586.854 640.938 594.483 639.896 604.936C638.854 615.388 646.483 624.707 656.936 625.749Z" fill="url(#paint35_linear_603_16319)"/>
<path d="M821.755 507.195L826.061 506.395L824.13 476.881L812.943 478.959L821.755 507.195Z" fill="#323232"/>
<path d="M825.846 518.727C827.67 518.649 829.084 517.107 829.006 515.283C828.927 513.46 827.385 512.045 825.561 512.124C823.738 512.203 822.324 513.745 822.402 515.568C822.481 517.392 824.023 518.806 825.846 518.727Z" fill="#323232"/>
<path d="M845.795 484.558L852.516 476.894" stroke="black" stroke-width="2" stroke-linecap="round"/>
<path d="M850.159 489.628L865.723 484.44" stroke="black" stroke-width="2" stroke-linecap="round"/>
<path d="M653.804 610.373C654.44 608.73 655.14 607.468 655.873 606.663C656.606 605.857 657.534 605.222 658.665 604.848C659.795 604.474 660.667 604.081 661.335 603.648C662.002 603.215 662.458 602.65 662.74 601.968C663.408 600.249 662.996 599.103 661.504 598.529C660.822 598.247 660.183 598.293 659.547 598.65C658.927 598.97 658.455 599.573 658.095 600.443L652.316 598.227C653.219 595.94 654.584 594.466 656.495 593.705C658.391 592.983 660.604 593.101 663.171 594.076C665.701 595.035 667.449 596.38 668.417 598.112C669.347 599.827 669.43 601.768 668.59 603.904C668.236 604.866 667.702 605.62 667.032 606.274C666.362 606.928 665.465 607.487 664.303 607.937L661.642 609.008C660.893 609.318 660.279 609.729 659.855 610.219C659.43 610.708 659.019 611.38 658.674 612.213L653.804 610.373ZM651.104 615.286C651.411 614.437 651.996 613.881 652.799 613.549C653.64 613.232 654.469 613.265 655.393 613.603C656.317 613.942 656.964 614.52 657.35 615.301C657.736 616.082 657.795 616.904 657.45 617.737C657.143 618.585 656.558 619.141 655.755 619.474C654.914 619.791 654.085 619.758 653.161 619.419C652.237 619.081 651.589 618.503 651.203 617.722C650.817 616.941 650.797 616.134 651.104 615.286Z" fill="#323232"/>
</g>
<defs>
<linearGradient id="paint0_linear_603_16319" x1="930" y1="476" x2="557" y2="572.5" gradientUnits="userSpaceOnUse">
<stop stop-color="#CDF1F8"/>
<stop offset="1" stop-color="white"/>
</linearGradient>
<linearGradient id="paint1_linear_603_16319" x1="500" y1="458.5" x2="615" y2="41.9998" gradientUnits="userSpaceOnUse">
<stop stop-color="white"/>
<stop offset="0.497502" stop-color="#D6F4F9"/>
<stop offset="1" stop-color="white"/>
</linearGradient>
<linearGradient id="paint2_linear_603_16319" x1="47.4999" y1="598" x2="545" y2="115" gradientUnits="userSpaceOnUse">
<stop stop-color="#CDF1F8"/>
<stop offset="1" stop-color="white"/>
</linearGradient>
<linearGradient id="paint3_linear_603_16319" x1="509.971" y1="280.461" x2="548.985" y2="285.283" gradientUnits="userSpaceOnUse">
<stop stop-color="#FFE052"/>
<stop offset="1" stop-color="#FFE052" stop-opacity="0.4"/>
</linearGradient>
<linearGradient id="paint4_linear_603_16319" x1="562.392" y1="280.581" x2="601.409" y2="285.404" gradientUnits="userSpaceOnUse">
<stop stop-color="#FFE052"/>
<stop offset="1" stop-color="#FFE052" stop-opacity="0.4"/>
</linearGradient>
<linearGradient id="paint5_linear_603_16319" x1="614.824" y1="280.694" x2="653.841" y2="285.517" gradientUnits="userSpaceOnUse">
<stop stop-color="#FFE052"/>
<stop offset="1" stop-color="#FFE052" stop-opacity="0.4"/>
</linearGradient>
<linearGradient id="paint6_linear_603_16319" x1="667.245" y1="280.815" x2="706.266" y2="285.638" gradientUnits="userSpaceOnUse">
<stop stop-color="#FFE052"/>
<stop offset="1" stop-color="#FFE052" stop-opacity="0.4"/>
</linearGradient>
<linearGradient id="paint7_linear_603_16319" x1="719.676" y1="280.937" x2="758.693" y2="285.76" gradientUnits="userSpaceOnUse">
<stop stop-color="#FFE052"/>
<stop offset="1" stop-color="#FFE052" stop-opacity="0.4"/>
</linearGradient>
<linearGradient id="paint8_linear_603_16319" x1="809.325" y1="116.155" x2="601.999" y2="116.155" gradientUnits="userSpaceOnUse">
<stop stop-color="#FFE052"/>
<stop offset="0.0525" stop-color="#FFDE5E"/>
<stop offset="0.2727" stop-color="#FFD88C"/>
<stop offset="0.484" stop-color="#FFD3AF"/>
<stop offset="0.6811" stop-color="#FFCFC9"/>
<stop offset="0.8588" stop-color="#FFCDD9"/>
<stop offset="1" stop-color="#FFCCDE"/>
</linearGradient>
<radialGradient id="paint9_radial_603_16319" cx="0" cy="0" r="1" gradientUnits="userSpaceOnUse" gradientTransform="translate(553.5 65.0001) rotate(36.1193) scale(320.628 97.645)">
<stop stop-color="#968BCD"/>
<stop offset="0.19" stop-color="#9D98D2"/>
<stop offset="0.54" stop-color="#B0BAE1"/>
<stop offset="1" stop-color="#CDF1F8"/>
</radialGradient>
<radialGradient id="paint10_radial_603_16319" cx="0" cy="0" r="1" gradientUnits="userSpaceOnUse" gradientTransform="translate(641 23.5) rotate(110.416) scale(215.005 64.0803)">
<stop stop-color="#9D98D2"/>
<stop offset="0.54" stop-color="#B0BAE1"/>
<stop offset="1" stop-color="#CDF1F8"/>
</radialGradient>
<radialGradient id="paint11_radial_603_16319" cx="0" cy="0" r="1" gradientUnits="userSpaceOnUse" gradientTransform="translate(915.5 402.5) rotate(147.082) scale(113.169 141.06)">
<stop offset="0.09" stop-color="white"/>
<stop offset="0.31" stop-color="#C3F0F7"/>
<stop offset="0.95" stop-color="#A18FD6"/>
</radialGradient>
<linearGradient id="paint12_linear_603_16319" x1="960.633" y1="418.794" x2="819.619" y2="418.794" gradientUnits="userSpaceOnUse">
<stop stop-color="#FFE052"/>
<stop offset="0.0525" stop-color="#FFDE5E"/>
<stop offset="0.2727" stop-color="#FFD88C"/>
<stop offset="0.484" stop-color="#FFD3AF"/>
<stop offset="0.6811" stop-color="#FFCFC9"/>
<stop offset="0.8588" stop-color="#FFCDD9"/>
<stop offset="1" stop-color="#FFCCDE"/>
</linearGradient>
<radialGradient id="paint13_radial_603_16319" cx="0" cy="0" r="1" gradientUnits="userSpaceOnUse" gradientTransform="translate(893.5 607) rotate(-153.241) scale(197.67 189.446)">
<stop offset="0.09" stop-color="white"/>
<stop offset="0.31" stop-color="#C3F0F7"/>
<stop offset="0.95" stop-color="#A18FD6"/>
</radialGradient>
<linearGradient id="paint14_linear_603_16319" x1="928.061" y1="562.459" x2="732.502" y2="562.459" gradientUnits="userSpaceOnUse">
<stop stop-color="#FFE052"/>
<stop offset="0.0525" stop-color="#FFDE5E"/>
<stop offset="0.2727" stop-color="#FFD88C"/>
<stop offset="0.484" stop-color="#FFD3AF"/>
<stop offset="0.6811" stop-color="#FFCFC9"/>
<stop offset="0.8588" stop-color="#FFCDD9"/>
<stop offset="1" stop-color="#FFCCDE"/>
</linearGradient>
<radialGradient id="paint15_radial_603_16319" cx="0" cy="0" r="1" gradientUnits="userSpaceOnUse" gradientTransform="translate(971.5 494) rotate(-176.845) scale(254.386 211.252)">
<stop offset="0.09" stop-color="white"/>
<stop offset="0.31" stop-color="#C3F0F7"/>
<stop offset="0.95" stop-color="#A18FD6"/>
</radialGradient>
<linearGradient id="paint16_linear_603_16319" x1="899.837" y1="457.285" x2="756.577" y2="457.285" gradientUnits="userSpaceOnUse">
<stop stop-color="#FFE052"/>
<stop offset="0.0525" stop-color="#FFDE5E"/>
<stop offset="0.2727" stop-color="#FFD88C"/>
<stop offset="0.484" stop-color="#FFD3AF"/>
<stop offset="0.6811" stop-color="#FFCFC9"/>
<stop offset="0.8588" stop-color="#FFCDD9"/>
<stop offset="1" stop-color="#FFCCDE"/>
</linearGradient>
<radialGradient id="paint17_radial_603_16319" cx="0" cy="0" r="1" gradientUnits="userSpaceOnUse" gradientTransform="translate(801.177 441.439) rotate(145.747) scale(55.4051 76.3511)">
<stop offset="0.09" stop-color="white"/>
<stop offset="0.31" stop-color="#C3F0F7"/>
<stop offset="0.95" stop-color="#A18FD6"/>
</radialGradient>
<radialGradient id="paint18_radial_603_16319" cx="0" cy="0" r="1" gradientUnits="userSpaceOnUse" gradientTransform="translate(813.368 443.159) rotate(146.47) scale(65.2398 88.9813)">
<stop offset="0.09" stop-color="white"/>
<stop offset="0.31" stop-color="#C3F0F7"/>
<stop offset="0.95" stop-color="#A18FD6"/>
</radialGradient>
<radialGradient id="paint19_radial_603_16319" cx="0" cy="0" r="1" gradientUnits="userSpaceOnUse" gradientTransform="translate(821.758 445.259) rotate(146.47) scale(65.2398 88.9813)">
<stop offset="0.09" stop-color="white"/>
<stop offset="0.31" stop-color="#C3F0F7"/>
<stop offset="0.95" stop-color="#A18FD6"/>
</radialGradient>
<linearGradient id="paint20_linear_603_16319" x1="250.084" y1="342.774" x2="301.379" y2="388.792" gradientUnits="userSpaceOnUse">
<stop stop-color="#968BCD"/>
<stop offset="0.1035" stop-color="#9B94D1"/>
<stop offset="0.276" stop-color="#A9AEDC"/>
<stop offset="0.495" stop-color="#BFD8ED"/>
<stop offset="0.6141" stop-color="#CDF1F8"/>
</linearGradient>
<linearGradient id="paint21_linear_603_16319" x1="331.403" y1="364.613" x2="400.316" y2="364.613" gradientUnits="userSpaceOnUse">
<stop stop-color="#FFCCDD"/>
<stop offset="1" stop-color="#FFE05E"/>
</linearGradient>
<linearGradient id="paint22_linear_603_16319" x1="150.005" y1="365.781" x2="218.917" y2="365.781" gradientUnits="userSpaceOnUse">
<stop stop-color="#FF3C00"/>
<stop offset="1" stop-color="white"/>
</linearGradient>
<linearGradient id="paint23_linear_603_16319" x1="241.039" y1="404.119" x2="307.827" y2="404.119" gradientUnits="userSpaceOnUse">
<stop stop-color="#B1CAE9"/>
<stop offset="0.7166" stop-color="#BAE5F4"/>
<stop offset="1" stop-color="#BEF1F9"/>
</linearGradient>
<linearGradient id="paint24_linear_603_16319" x1="247.829" y1="427.826" x2="300.793" y2="363.266" gradientUnits="userSpaceOnUse">
<stop stop-color="#FF7A5F"/>
<stop offset="1" stop-color="#FFCCDD"/>
</linearGradient>
<linearGradient id="paint25_linear_603_16319" x1="375.597" y1="404.115" x2="233.799" y2="404.115" gradientUnits="userSpaceOnUse">
<stop stop-color="#FFE052"/>
<stop offset="0.0525" stop-color="#FFDE5E"/>
<stop offset="0.2727" stop-color="#FFD88C"/>
<stop offset="0.484" stop-color="#FFD3AF"/>
<stop offset="0.6811" stop-color="#FFCFC9"/>
<stop offset="0.8588" stop-color="#FFCDD9"/>
<stop offset="1" stop-color="#FFCCDE"/>
</linearGradient>
<radialGradient id="paint26_radial_603_16319" cx="0" cy="0" r="1" gradientUnits="userSpaceOnUse" gradientTransform="translate(316.5 385.176) rotate(108.239) scale(185.311 64.7791)">
<stop stop-color="#968BCD"/>
<stop offset="0.19" stop-color="#9D98D2"/>
<stop offset="0.54" stop-color="#B0BAE1"/>
<stop offset="1" stop-color="#CDF1F8"/>
</radialGradient>
<linearGradient id="paint27_linear_603_16319" x1="155.857" y1="274.654" x2="303.51" y2="274.654" gradientUnits="userSpaceOnUse">
<stop offset="0.1537" stop-color="#9C8CD0"/>
<stop offset="0.294" stop-color="#9E93D3"/>
<stop offset="0.488" stop-color="#A4A4DA"/>
<stop offset="0.7132" stop-color="#AEC2E6"/>
<stop offset="0.9602" stop-color="#BBEAF6"/>
<stop offset="1" stop-color="#BEF1F9"/>
</linearGradient>
<linearGradient id="paint28_linear_603_16319" x1="225.18" y1="288.55" x2="250.497" y2="237.908" gradientUnits="userSpaceOnUse">
<stop stop-color="#FF7A5F"/>
<stop offset="1" stop-color="#FFCCDD"/>
</linearGradient>
<linearGradient id="paint29_linear_603_16319" x1="348.057" y1="274.655" x2="211.687" y2="274.655" gradientUnits="userSpaceOnUse">
<stop stop-color="#FFE052"/>
<stop offset="0.0525" stop-color="#FFDE5E"/>
<stop offset="0.2727" stop-color="#FFD88C"/>
<stop offset="0.484" stop-color="#FFD3AF"/>
<stop offset="0.6811" stop-color="#FFCFC9"/>
<stop offset="0.8588" stop-color="#FFCDD9"/>
<stop offset="1" stop-color="#FFCCDE"/>
</linearGradient>
<radialGradient id="paint30_radial_603_16319" cx="0" cy="0" r="1" gradientUnits="userSpaceOnUse" gradientTransform="translate(357 334.176) rotate(-142.549) scale(325.617 71.1815)">
<stop stop-color="#968BCD"/>
<stop offset="0.19" stop-color="#9D98D2"/>
<stop offset="0.54" stop-color="#B0BAE1"/>
<stop offset="1" stop-color="#CDF1F8"/>
</radialGradient>
<linearGradient id="paint31_linear_603_16319" x1="210.705" y1="362.526" x2="86.8563" y2="362.526" gradientUnits="userSpaceOnUse">
<stop stop-color="#FFE052"/>
<stop offset="0.0525" stop-color="#FFDE5E"/>
<stop offset="0.2727" stop-color="#FFD88C"/>
<stop offset="0.484" stop-color="#FFD3AF"/>
<stop offset="0.6811" stop-color="#FFCFC9"/>
<stop offset="0.8588" stop-color="#FFCDD9"/>
<stop offset="1" stop-color="#FFCCDE"/>
</linearGradient>
<radialGradient id="paint32_radial_603_16319" cx="0" cy="0" r="1" gradientUnits="userSpaceOnUse" gradientTransform="translate(310.5 290.676) rotate(159.038) scale(380.159 94.5849)">
<stop stop-color="#968BCD"/>
<stop offset="0.19" stop-color="#9D98D2"/>
<stop offset="0.54" stop-color="#B0BAE1"/>
<stop offset="1" stop-color="#CDF1F8"/>
</radialGradient>
<linearGradient id="paint33_linear_603_16319" x1="845.443" y1="500.732" x2="803.575" y2="508.507" gradientUnits="userSpaceOnUse">
<stop stop-color="#FF3C00"/>
<stop offset="1" stop-color="#FFCCDD"/>
</linearGradient>
<linearGradient id="paint34_linear_603_16319" x1="677.879" y1="605.864" x2="639.873" y2="607.427" gradientUnits="userSpaceOnUse">
<stop stop-color="#FF3C00"/>
<stop offset="1" stop-color="#FFCCDD"/>
</linearGradient>
<linearGradient id="paint35_linear_603_16319" x1="639.864" y1="604.941" x2="677.756" y2="608.719" gradientUnits="userSpaceOnUse">
<stop stop-color="#FFCCDD"/>
<stop offset="1" stop-color="#FFE05E"/>
</linearGradient>
<clipPath id="clip0_603_16319">
<rect width="1080" height="720" fill="white"/>
</clipPath>
</defs>
</svg>
